%TF.GenerationSoftware,KiCad,Pcbnew,6.0.2+dfsg-1*%
%TF.CreationDate,2022-08-07T15:37:48+10:00*%
%TF.ProjectId,pcb,7063622e-6b69-4636-9164-5f7063625858,rev?*%
%TF.SameCoordinates,Original*%
%TF.FileFunction,Copper,L1,Top*%
%TF.FilePolarity,Positive*%
%FSLAX46Y46*%
G04 Gerber Fmt 4.6, Leading zero omitted, Abs format (unit mm)*
G04 Created by KiCad (PCBNEW 6.0.2+dfsg-1) date 2022-08-07 15:37:48*
%MOMM*%
%LPD*%
G01*
G04 APERTURE LIST*
%TA.AperFunction,NonConductor*%
%ADD10C,0.200000*%
%TD*%
%TA.AperFunction,ComponentPad*%
%ADD11C,1.524000*%
%TD*%
%TA.AperFunction,ComponentPad*%
%ADD12C,1.600000*%
%TD*%
%TA.AperFunction,ComponentPad*%
%ADD13O,1.600000X1.600000*%
%TD*%
%TA.AperFunction,ComponentPad*%
%ADD14R,1.600000X1.600000*%
%TD*%
%TA.AperFunction,WasherPad*%
%ADD15C,2.000000*%
%TD*%
%TA.AperFunction,Conductor*%
%ADD16C,0.250000*%
%TD*%
G04 APERTURE END LIST*
D10*
X136525000Y-113030000D02*
X135890000Y-113665000D01*
X136525000Y-113030000D02*
X138430000Y-113030000D01*
X136525000Y-111125000D02*
X136525000Y-113030000D01*
D11*
%TO.P,U5,1,VCC*%
%TO.N,/VCC*%
X120590000Y-99155000D03*
%TO.P,U5,2,GND*%
%TO.N,/GND*%
X123130000Y-99155000D03*
%TO.P,U5,3,DC*%
%TO.N,Net-(U5-Pad3)*%
X125670000Y-99155000D03*
%TO.P,U5,4,CS*%
%TO.N,Net-(U5-Pad4)*%
X128210000Y-99155000D03*
%TO.P,U5,5,CLK*%
%TO.N,Net-(U5-Pad5)*%
X130750000Y-99155000D03*
%TO.P,U5,6,DIN*%
%TO.N,Net-(U5-Pad6)*%
X133290000Y-99155000D03*
%TO.P,U5,7,RST*%
%TO.N,Net-(U5-Pad7)*%
X135830000Y-99155000D03*
%TO.P,U5,8,BUSY*%
%TO.N,Net-(U5-Pad8)*%
X138370000Y-99155000D03*
%TD*%
%TO.P,U3,1,VBUS*%
%TO.N,Net-(R1-Pad1)*%
X123190000Y-71755000D03*
%TO.P,U3,2,GND*%
%TO.N,/GND*%
X123190000Y-74295000D03*
%TO.P,U3,3,3V3*%
%TO.N,/VCC*%
X123190000Y-76835000D03*
%TO.P,U3,4,GP29*%
%TO.N,Net-(R1-Pad2)*%
X123190000Y-79375000D03*
%TO.P,U3,5,GP28*%
%TO.N,Net-(U2-Pad2)*%
X123190000Y-81915000D03*
%TO.P,U3,6,GP27*%
%TO.N,Net-(U2-Pad3)*%
X123190000Y-84455000D03*
%TO.P,U3,7,GP26*%
%TO.N,Net-(U2-Pad4)*%
X123190000Y-86995000D03*
%TO.P,U3,8,GND*%
%TO.N,/GND*%
X123190000Y-89535000D03*
%TO.P,U3,9,GP7*%
%TO.N,Net-(U3-Pad9)*%
X138430000Y-89535000D03*
%TO.P,U3,10,GP6*%
%TO.N,unconnected-(U3-Pad10)*%
X138430000Y-86995000D03*
%TO.P,U3,11,GP5*%
%TO.N,Net-(U5-Pad8)*%
X138430000Y-84455000D03*
%TO.P,U3,12,GP4*%
%TO.N,Net-(U5-Pad7)*%
X138430000Y-81915000D03*
%TO.P,U3,13,GP3*%
%TO.N,Net-(U5-Pad6)*%
X138430000Y-79375000D03*
%TO.P,U3,14,GP2*%
%TO.N,Net-(U5-Pad5)*%
X138430000Y-76835000D03*
%TO.P,U3,15,GP1*%
%TO.N,Net-(U5-Pad4)*%
X138430000Y-74295000D03*
%TO.P,U3,16,GP0*%
%TO.N,Net-(U5-Pad3)*%
X138430000Y-71755000D03*
%TD*%
D12*
%TO.P,R1,1*%
%TO.N,Net-(R1-Pad1)*%
X103505000Y-99060000D03*
D13*
%TO.P,R1,2*%
%TO.N,Net-(R1-Pad2)*%
X103505000Y-109220000D03*
%TD*%
D14*
%TO.P,D1,1,K*%
%TO.N,Net-(R1-Pad1)*%
X118110000Y-74930000D03*
D13*
%TO.P,D1,2,A*%
%TO.N,Net-(SW1-Pad3)*%
X110490000Y-74930000D03*
%TD*%
D11*
%TO.P,U1,1,GND*%
%TO.N,unconnected-(U1-Pad1)*%
X101600000Y-78105000D03*
%TO.P,U1,2,5V*%
%TO.N,Net-(U3-Pad9)*%
X101600000Y-80645000D03*
%TO.P,U1,3,CH*%
%TO.N,unconnected-(U1-Pad3)*%
X101600000Y-83185000D03*
%TO.P,U1,4,VBAT*%
%TO.N,Net-(U1-Pad4)*%
X101600000Y-85725000D03*
%TO.P,U1,5,GND*%
%TO.N,/GND*%
X101600000Y-88265000D03*
%TD*%
D12*
%TO.P,R2,1*%
%TO.N,Net-(R1-Pad2)*%
X101600000Y-113665000D03*
D13*
%TO.P,R2,2*%
%TO.N,/GND*%
X111760000Y-113665000D03*
%TD*%
D11*
%TO.P,U2,1,VCC*%
%TO.N,/VCC*%
X115570000Y-103505000D03*
%TO.P,U2,2,X*%
%TO.N,Net-(U2-Pad2)*%
X115570000Y-106045000D03*
%TO.P,U2,3,Y*%
%TO.N,Net-(U2-Pad3)*%
X115570000Y-108585000D03*
%TO.P,U2,4,Z*%
%TO.N,Net-(U2-Pad4)*%
X115570000Y-111125000D03*
%TO.P,U2,5,GND*%
%TO.N,/GND*%
X115570000Y-113665000D03*
%TD*%
D15*
%TO.P,SW1,*%
%TO.N,*%
X102870000Y-72295000D03*
X113030000Y-72295000D03*
D11*
%TO.P,SW1,1,A*%
%TO.N,unconnected-(SW1-Pad1)*%
X105410000Y-72295000D03*
%TO.P,SW1,2,B*%
%TO.N,Net-(U1-Pad4)*%
X107950000Y-72295000D03*
%TO.P,SW1,3,C*%
%TO.N,Net-(SW1-Pad3)*%
X110490000Y-72295000D03*
%TD*%
D16*
%TO.N,Net-(R1-Pad1)*%
X118110000Y-76835000D02*
X118110000Y-74930000D01*
X121285000Y-71755000D02*
X118110000Y-74930000D01*
X123190000Y-71755000D02*
X121285000Y-71755000D01*
X103505000Y-91440000D02*
X118110000Y-76835000D01*
X103505000Y-99060000D02*
X103505000Y-91440000D01*
%TO.N,Net-(R1-Pad2)*%
X103505000Y-109220000D02*
X101600000Y-111125000D01*
X107315000Y-109220000D02*
X109220000Y-107315000D01*
X109220000Y-88900000D02*
X118745000Y-79375000D01*
X103505000Y-109220000D02*
X107315000Y-109220000D01*
X118745000Y-79375000D02*
X123190000Y-79375000D01*
X109220000Y-107315000D02*
X109220000Y-88900000D01*
X101600000Y-111125000D02*
X101600000Y-113665000D01*
%TO.N,Net-(U2-Pad2)*%
X116840000Y-106045000D02*
X117475000Y-105410000D01*
X117475000Y-82550000D02*
X118110000Y-81915000D01*
X115570000Y-106045000D02*
X116840000Y-106045000D01*
X117475000Y-105410000D02*
X117475000Y-82550000D01*
X118110000Y-81915000D02*
X123190000Y-81915000D01*
%TO.N,Net-(U2-Pad3)*%
X115570000Y-108585000D02*
X117475000Y-108585000D01*
X118110000Y-85090000D02*
X118745000Y-84455000D01*
X118745000Y-84455000D02*
X123190000Y-84455000D01*
X117475000Y-108585000D02*
X118110000Y-107950000D01*
X118110000Y-107950000D02*
X118110000Y-85090000D01*
%TO.N,Net-(U2-Pad4)*%
X118745000Y-87630000D02*
X119380000Y-86995000D01*
X118745000Y-110490000D02*
X118745000Y-87630000D01*
X118110000Y-111125000D02*
X118745000Y-110490000D01*
X119380000Y-86995000D02*
X123190000Y-86995000D01*
X115570000Y-111125000D02*
X118110000Y-111125000D01*
%TO.N,/VCC*%
X120495000Y-99060000D02*
X120590000Y-99155000D01*
%TO.N,Net-(U5-Pad8)*%
X136525000Y-86360000D02*
X138430000Y-84455000D01*
X138370000Y-99155000D02*
X138370000Y-97730000D01*
X136525000Y-95885000D02*
X136525000Y-86360000D01*
X138370000Y-99155000D02*
X138370000Y-99120000D01*
X138370000Y-97730000D02*
X136525000Y-95885000D01*
X138370000Y-99120000D02*
X138430000Y-99060000D01*
%TO.N,Net-(U5-Pad7)*%
X135830000Y-99155000D02*
X135830000Y-84515000D01*
X135830000Y-84515000D02*
X138430000Y-81915000D01*
%TO.N,Net-(U5-Pad6)*%
X133290000Y-99155000D02*
X133290000Y-84515000D01*
X133290000Y-84515000D02*
X138430000Y-79375000D01*
%TO.N,Net-(U5-Pad5)*%
X130750000Y-99155000D02*
X130750000Y-84515000D01*
X130750000Y-84515000D02*
X138430000Y-76835000D01*
%TO.N,Net-(U5-Pad4)*%
X128210000Y-84515000D02*
X138430000Y-74295000D01*
X128210000Y-99155000D02*
X128210000Y-84515000D01*
%TO.N,Net-(U5-Pad3)*%
X125670000Y-84515000D02*
X138430000Y-71755000D01*
X125670000Y-99155000D02*
X125670000Y-84515000D01*
%TO.N,Net-(U1-Pad4)*%
X107950000Y-85090000D02*
X107950000Y-72295000D01*
X101600000Y-85725000D02*
X107315000Y-85725000D01*
X107315000Y-85725000D02*
X107950000Y-85090000D01*
%TO.N,Net-(SW1-Pad3)*%
X110490000Y-74930000D02*
X110490000Y-72295000D01*
%TD*%
M02*
