%TF.GenerationSoftware,KiCad,Pcbnew,6.0.2+dfsg-1*%
%TF.CreationDate,2022-08-07T15:37:48+10:00*%
%TF.ProjectId,pcb,7063622e-6b69-4636-9164-5f7063625858,rev?*%
%TF.SameCoordinates,Original*%
%TF.FileFunction,Soldermask,Bot*%
%TF.FilePolarity,Negative*%
%FSLAX46Y46*%
G04 Gerber Fmt 4.6, Leading zero omitted, Abs format (unit mm)*
G04 Created by KiCad (PCBNEW 6.0.2+dfsg-1) date 2022-08-07 15:37:48*
%MOMM*%
%LPD*%
G01*
G04 APERTURE LIST*
%ADD10C,1.524000*%
%ADD11C,1.600000*%
%ADD12O,1.600000X1.600000*%
%ADD13R,1.600000X1.600000*%
%ADD14C,2.000000*%
G04 APERTURE END LIST*
D10*
%TO.C,U5*%
X120590000Y-99155000D03*
X123130000Y-99155000D03*
X125670000Y-99155000D03*
X128210000Y-99155000D03*
X130750000Y-99155000D03*
X133290000Y-99155000D03*
X135830000Y-99155000D03*
X138370000Y-99155000D03*
%TD*%
%TO.C,U3*%
X123190000Y-71755000D03*
X123190000Y-74295000D03*
X123190000Y-76835000D03*
X123190000Y-79375000D03*
X123190000Y-81915000D03*
X123190000Y-84455000D03*
X123190000Y-86995000D03*
X123190000Y-89535000D03*
X138430000Y-89535000D03*
X138430000Y-86995000D03*
X138430000Y-84455000D03*
X138430000Y-81915000D03*
X138430000Y-79375000D03*
X138430000Y-76835000D03*
X138430000Y-74295000D03*
X138430000Y-71755000D03*
%TD*%
D11*
%TO.C,R1*%
X103505000Y-99060000D03*
D12*
X103505000Y-109220000D03*
%TD*%
D13*
%TO.C,D1*%
X118110000Y-74930000D03*
D12*
X110490000Y-74930000D03*
%TD*%
D10*
%TO.C,U1*%
X101600000Y-78105000D03*
X101600000Y-80645000D03*
X101600000Y-83185000D03*
X101600000Y-85725000D03*
X101600000Y-88265000D03*
%TD*%
D11*
%TO.C,R2*%
X101600000Y-113665000D03*
D12*
X111760000Y-113665000D03*
%TD*%
D10*
%TO.C,U2*%
X115570000Y-103505000D03*
X115570000Y-106045000D03*
X115570000Y-108585000D03*
X115570000Y-111125000D03*
X115570000Y-113665000D03*
%TD*%
D14*
%TO.C,SW1*%
X102870000Y-72295000D03*
X113030000Y-72295000D03*
D10*
X105410000Y-72295000D03*
X107950000Y-72295000D03*
X110490000Y-72295000D03*
%TD*%
M02*
