M48
; DRILL file {KiCad 6.0.2+dfsg-1} date Sun 07 Aug 2022 15:38:13
; FORMAT={-:-/ absolute / inch / decimal}
; #@! TF.CreationDate,2022-08-07T15:38:13+10:00
; #@! TF.GenerationSoftware,Kicad,Pcbnew,6.0.2+dfsg-1
; #@! TF.FileFunction,Plated,1,2,PTH
FMAT,2
INCH
; #@! TA.AperFunction,Plated,PTH,ComponentDrill
T1C0.0300
; #@! TA.AperFunction,Plated,PTH,ComponentDrill
T2C0.0315
%
G90
G05
T1
X4.0Y-3.075
X4.0Y-3.175
X4.0Y-3.275
X4.0Y-3.375
X4.0Y-3.475
X4.15Y-2.8463
X4.25Y-2.8463
X4.35Y-2.8463
X4.55Y-4.075
X4.55Y-4.175
X4.55Y-4.275
X4.55Y-4.375
X4.55Y-4.475
X4.7476Y-3.9037
X4.8476Y-3.9037
X4.85Y-2.825
X4.85Y-2.925
X4.85Y-3.025
X4.85Y-3.125
X4.85Y-3.225
X4.85Y-3.325
X4.85Y-3.425
X4.85Y-3.525
X4.9476Y-3.9037
X5.0476Y-3.9037
X5.1476Y-3.9037
X5.2476Y-3.9037
X5.3476Y-3.9037
X5.4476Y-3.9037
X5.45Y-2.825
X5.45Y-2.925
X5.45Y-3.025
X5.45Y-3.125
X5.45Y-3.225
X5.45Y-3.325
X5.45Y-3.425
X5.45Y-3.525
T2
X4.0Y-4.475
X4.075Y-3.9
X4.075Y-4.3
X4.35Y-2.95
X4.4Y-4.475
X4.65Y-2.95
T0
M30
