%TF.GenerationSoftware,KiCad,Pcbnew,6.0.2+dfsg-1*%
%TF.CreationDate,2022-08-07T15:37:48+10:00*%
%TF.ProjectId,pcb,7063622e-6b69-4636-9164-5f7063625858,rev?*%
%TF.SameCoordinates,Original*%
%TF.FileFunction,Legend,Top*%
%TF.FilePolarity,Positive*%
%FSLAX46Y46*%
G04 Gerber Fmt 4.6, Leading zero omitted, Abs format (unit mm)*
G04 Created by KiCad (PCBNEW 6.0.2+dfsg-1) date 2022-08-07 15:37:48*
%MOMM*%
%LPD*%
G01*
G04 APERTURE LIST*
%ADD10C,0.200000*%
%ADD11C,0.150000*%
%ADD12C,0.300000*%
%ADD13C,0.120000*%
G04 APERTURE END LIST*
D10*
X138430000Y-113030000D02*
X137795000Y-113665000D01*
X138430000Y-111125000D02*
X138430000Y-113030000D01*
X137795000Y-111760000D02*
X138430000Y-111125000D01*
X136525000Y-111125000D02*
X138430000Y-111125000D01*
X135890000Y-111760000D02*
X136525000Y-111125000D01*
X135890000Y-113665000D02*
X137795000Y-113665000D01*
X137795000Y-113665000D02*
X137795000Y-111760000D01*
X137795000Y-111760000D02*
X135890000Y-111760000D01*
X135890000Y-111760000D02*
X135890000Y-113665000D01*
D11*
X122690000Y-103348214D02*
X122642380Y-103443452D01*
X122642380Y-103586309D01*
X122690000Y-103729166D01*
X122785238Y-103824404D01*
X122880476Y-103872023D01*
X123070952Y-103919642D01*
X123213809Y-103919642D01*
X123404285Y-103872023D01*
X123499523Y-103824404D01*
X123594761Y-103729166D01*
X123642380Y-103586309D01*
X123642380Y-103491071D01*
X123594761Y-103348214D01*
X123547142Y-103300595D01*
X123213809Y-103300595D01*
X123213809Y-103491071D01*
X123642380Y-102872023D02*
X122642380Y-102872023D01*
X123642380Y-102300595D01*
X122642380Y-102300595D01*
X123642380Y-101824404D02*
X122642380Y-101824404D01*
X122642380Y-101586309D01*
X122690000Y-101443452D01*
X122785238Y-101348214D01*
X122880476Y-101300595D01*
X123070952Y-101252976D01*
X123213809Y-101252976D01*
X123404285Y-101300595D01*
X123499523Y-101348214D01*
X123594761Y-101443452D01*
X123642380Y-101586309D01*
X123642380Y-101824404D01*
X131167142Y-103062500D02*
X131214761Y-103110119D01*
X131262380Y-103252976D01*
X131262380Y-103348214D01*
X131214761Y-103491071D01*
X131119523Y-103586309D01*
X131024285Y-103633928D01*
X130833809Y-103681547D01*
X130690952Y-103681547D01*
X130500476Y-103633928D01*
X130405238Y-103586309D01*
X130310000Y-103491071D01*
X130262380Y-103348214D01*
X130262380Y-103252976D01*
X130310000Y-103110119D01*
X130357619Y-103062500D01*
X131262380Y-102157738D02*
X131262380Y-102633928D01*
X130262380Y-102633928D01*
X131262380Y-101824404D02*
X130262380Y-101824404D01*
X131262380Y-101252976D02*
X130690952Y-101681547D01*
X130262380Y-101252976D02*
X130833809Y-101824404D01*
X113196666Y-111632619D02*
X113196666Y-111156428D01*
X113482380Y-111727857D02*
X112482380Y-111394523D01*
X113482380Y-111061190D01*
X113482380Y-110727857D02*
X112482380Y-110727857D01*
X112482380Y-110489761D01*
X112530000Y-110346904D01*
X112625238Y-110251666D01*
X112720476Y-110204047D01*
X112910952Y-110156428D01*
X113053809Y-110156428D01*
X113244285Y-110204047D01*
X113339523Y-110251666D01*
X113434761Y-110346904D01*
X113482380Y-110489761D01*
X113482380Y-110727857D01*
X112482380Y-109823095D02*
X113482380Y-109156428D01*
X112482380Y-109156428D02*
X113482380Y-109823095D01*
X113482380Y-108299285D02*
X113482380Y-108775476D01*
X112482380Y-108775476D01*
X112482380Y-108061190D02*
X112482380Y-107442142D01*
X112863333Y-107775476D01*
X112863333Y-107632619D01*
X112910952Y-107537380D01*
X112958571Y-107489761D01*
X113053809Y-107442142D01*
X113291904Y-107442142D01*
X113387142Y-107489761D01*
X113434761Y-107537380D01*
X113482380Y-107632619D01*
X113482380Y-107918333D01*
X113434761Y-108013571D01*
X113387142Y-108061190D01*
X112482380Y-107108809D02*
X112482380Y-106489761D01*
X112863333Y-106823095D01*
X112863333Y-106680238D01*
X112910952Y-106585000D01*
X112958571Y-106537380D01*
X113053809Y-106489761D01*
X113291904Y-106489761D01*
X113387142Y-106537380D01*
X113434761Y-106585000D01*
X113482380Y-106680238D01*
X113482380Y-106965952D01*
X113434761Y-107061190D01*
X113387142Y-107108809D01*
X112482380Y-105585000D02*
X112482380Y-106061190D01*
X112958571Y-106108809D01*
X112910952Y-106061190D01*
X112863333Y-105965952D01*
X112863333Y-105727857D01*
X112910952Y-105632619D01*
X112958571Y-105585000D01*
X113053809Y-105537380D01*
X113291904Y-105537380D01*
X113387142Y-105585000D01*
X113434761Y-105632619D01*
X113482380Y-105727857D01*
X113482380Y-105965952D01*
X113434761Y-106061190D01*
X113387142Y-106108809D01*
X129452857Y-71672380D02*
X130024285Y-71672380D01*
X129738571Y-72672380D02*
X129738571Y-71672380D01*
X130357619Y-72672380D02*
X130357619Y-72005714D01*
X130357619Y-71672380D02*
X130310000Y-71720000D01*
X130357619Y-71767619D01*
X130405238Y-71720000D01*
X130357619Y-71672380D01*
X130357619Y-71767619D01*
X130833809Y-72005714D02*
X130833809Y-72672380D01*
X130833809Y-72100952D02*
X130881428Y-72053333D01*
X130976666Y-72005714D01*
X131119523Y-72005714D01*
X131214761Y-72053333D01*
X131262380Y-72148571D01*
X131262380Y-72672380D01*
X131643333Y-72005714D02*
X131881428Y-72672380D01*
X132119523Y-72005714D02*
X131881428Y-72672380D01*
X131786190Y-72910476D01*
X131738571Y-72958095D01*
X131643333Y-73005714D01*
X129095714Y-73377619D02*
X129143333Y-73330000D01*
X129238571Y-73282380D01*
X129476666Y-73282380D01*
X129571904Y-73330000D01*
X129619523Y-73377619D01*
X129667142Y-73472857D01*
X129667142Y-73568095D01*
X129619523Y-73710952D01*
X129048095Y-74282380D01*
X129667142Y-74282380D01*
X130286190Y-73282380D02*
X130381428Y-73282380D01*
X130476666Y-73330000D01*
X130524285Y-73377619D01*
X130571904Y-73472857D01*
X130619523Y-73663333D01*
X130619523Y-73901428D01*
X130571904Y-74091904D01*
X130524285Y-74187142D01*
X130476666Y-74234761D01*
X130381428Y-74282380D01*
X130286190Y-74282380D01*
X130190952Y-74234761D01*
X130143333Y-74187142D01*
X130095714Y-74091904D01*
X130048095Y-73901428D01*
X130048095Y-73663333D01*
X130095714Y-73472857D01*
X130143333Y-73377619D01*
X130190952Y-73330000D01*
X130286190Y-73282380D01*
X131476666Y-73615714D02*
X131476666Y-74282380D01*
X131238571Y-73234761D02*
X131000476Y-73949047D01*
X131619523Y-73949047D01*
X132190952Y-73282380D02*
X132286190Y-73282380D01*
X132381428Y-73330000D01*
X132429047Y-73377619D01*
X132476666Y-73472857D01*
X132524285Y-73663333D01*
X132524285Y-73901428D01*
X132476666Y-74091904D01*
X132429047Y-74187142D01*
X132381428Y-74234761D01*
X132286190Y-74282380D01*
X132190952Y-74282380D01*
X132095714Y-74234761D01*
X132048095Y-74187142D01*
X132000476Y-74091904D01*
X131952857Y-73901428D01*
X131952857Y-73663333D01*
X132000476Y-73472857D01*
X132048095Y-73377619D01*
X132095714Y-73330000D01*
X132190952Y-73282380D01*
X135495357Y-114720714D02*
X135733452Y-115387380D01*
X135971547Y-114720714D01*
X136542976Y-114387380D02*
X136638214Y-114387380D01*
X136733452Y-114435000D01*
X136781071Y-114482619D01*
X136828690Y-114577857D01*
X136876309Y-114768333D01*
X136876309Y-115006428D01*
X136828690Y-115196904D01*
X136781071Y-115292142D01*
X136733452Y-115339761D01*
X136638214Y-115387380D01*
X136542976Y-115387380D01*
X136447738Y-115339761D01*
X136400119Y-115292142D01*
X136352500Y-115196904D01*
X136304880Y-115006428D01*
X136304880Y-114768333D01*
X136352500Y-114577857D01*
X136400119Y-114482619D01*
X136447738Y-114435000D01*
X136542976Y-114387380D01*
X137304880Y-115292142D02*
X137352500Y-115339761D01*
X137304880Y-115387380D01*
X137257261Y-115339761D01*
X137304880Y-115292142D01*
X137304880Y-115387380D01*
X137733452Y-114482619D02*
X137781071Y-114435000D01*
X137876309Y-114387380D01*
X138114404Y-114387380D01*
X138209642Y-114435000D01*
X138257261Y-114482619D01*
X138304880Y-114577857D01*
X138304880Y-114673095D01*
X138257261Y-114815952D01*
X137685833Y-115387380D01*
X138304880Y-115387380D01*
X138358571Y-103300595D02*
X138406190Y-103157738D01*
X138453809Y-103110119D01*
X138549047Y-103062500D01*
X138691904Y-103062500D01*
X138787142Y-103110119D01*
X138834761Y-103157738D01*
X138882380Y-103252976D01*
X138882380Y-103633928D01*
X137882380Y-103633928D01*
X137882380Y-103300595D01*
X137930000Y-103205357D01*
X137977619Y-103157738D01*
X138072857Y-103110119D01*
X138168095Y-103110119D01*
X138263333Y-103157738D01*
X138310952Y-103205357D01*
X138358571Y-103300595D01*
X138358571Y-103633928D01*
X138834761Y-102681547D02*
X138882380Y-102538690D01*
X138882380Y-102300595D01*
X138834761Y-102205357D01*
X138787142Y-102157738D01*
X138691904Y-102110119D01*
X138596666Y-102110119D01*
X138501428Y-102157738D01*
X138453809Y-102205357D01*
X138406190Y-102300595D01*
X138358571Y-102491071D01*
X138310952Y-102586309D01*
X138263333Y-102633928D01*
X138168095Y-102681547D01*
X138072857Y-102681547D01*
X137977619Y-102633928D01*
X137930000Y-102586309D01*
X137882380Y-102491071D01*
X137882380Y-102252976D01*
X137930000Y-102110119D01*
X138406190Y-101491071D02*
X138882380Y-101491071D01*
X137882380Y-101824404D02*
X138406190Y-101491071D01*
X137882380Y-101157738D01*
X128627142Y-102205357D02*
X128674761Y-102252976D01*
X128722380Y-102395833D01*
X128722380Y-102491071D01*
X128674761Y-102633928D01*
X128579523Y-102729166D01*
X128484285Y-102776785D01*
X128293809Y-102824404D01*
X128150952Y-102824404D01*
X127960476Y-102776785D01*
X127865238Y-102729166D01*
X127770000Y-102633928D01*
X127722380Y-102491071D01*
X127722380Y-102395833D01*
X127770000Y-102252976D01*
X127817619Y-102205357D01*
X128674761Y-101824404D02*
X128722380Y-101681547D01*
X128722380Y-101443452D01*
X128674761Y-101348214D01*
X128627142Y-101300595D01*
X128531904Y-101252976D01*
X128436666Y-101252976D01*
X128341428Y-101300595D01*
X128293809Y-101348214D01*
X128246190Y-101443452D01*
X128198571Y-101633928D01*
X128150952Y-101729166D01*
X128103333Y-101776785D01*
X128008095Y-101824404D01*
X127912857Y-101824404D01*
X127817619Y-101776785D01*
X127770000Y-101729166D01*
X127722380Y-101633928D01*
X127722380Y-101395833D01*
X127770000Y-101252976D01*
X123525595Y-115387380D02*
X123525595Y-114387380D01*
X123954166Y-115387380D02*
X123954166Y-114863571D01*
X123906547Y-114768333D01*
X123811309Y-114720714D01*
X123668452Y-114720714D01*
X123573214Y-114768333D01*
X123525595Y-114815952D01*
X124858928Y-115387380D02*
X124858928Y-114863571D01*
X124811309Y-114768333D01*
X124716071Y-114720714D01*
X124525595Y-114720714D01*
X124430357Y-114768333D01*
X124858928Y-115339761D02*
X124763690Y-115387380D01*
X124525595Y-115387380D01*
X124430357Y-115339761D01*
X124382738Y-115244523D01*
X124382738Y-115149285D01*
X124430357Y-115054047D01*
X124525595Y-115006428D01*
X124763690Y-115006428D01*
X124858928Y-114958809D01*
X125763690Y-115387380D02*
X125763690Y-114387380D01*
X125763690Y-115339761D02*
X125668452Y-115387380D01*
X125477976Y-115387380D01*
X125382738Y-115339761D01*
X125335119Y-115292142D01*
X125287500Y-115196904D01*
X125287500Y-114911190D01*
X125335119Y-114815952D01*
X125382738Y-114768333D01*
X125477976Y-114720714D01*
X125668452Y-114720714D01*
X125763690Y-114768333D01*
X126097023Y-114720714D02*
X126477976Y-114720714D01*
X126239880Y-115387380D02*
X126239880Y-114530238D01*
X126287500Y-114435000D01*
X126382738Y-114387380D01*
X126477976Y-114387380D01*
X126811309Y-115387380D02*
X126811309Y-114720714D01*
X126811309Y-114387380D02*
X126763690Y-114435000D01*
X126811309Y-114482619D01*
X126858928Y-114435000D01*
X126811309Y-114387380D01*
X126811309Y-114482619D01*
X127668452Y-115339761D02*
X127573214Y-115387380D01*
X127382738Y-115387380D01*
X127287500Y-115339761D01*
X127239880Y-115244523D01*
X127239880Y-114863571D01*
X127287500Y-114768333D01*
X127382738Y-114720714D01*
X127573214Y-114720714D01*
X127668452Y-114768333D01*
X127716071Y-114863571D01*
X127716071Y-114958809D01*
X127239880Y-115054047D01*
X128287500Y-115387380D02*
X128192261Y-115339761D01*
X128144642Y-115244523D01*
X128144642Y-114387380D01*
X129097023Y-115387380D02*
X129097023Y-114387380D01*
X129097023Y-115339761D02*
X129001785Y-115387380D01*
X128811309Y-115387380D01*
X128716071Y-115339761D01*
X128668452Y-115292142D01*
X128620833Y-115196904D01*
X128620833Y-114911190D01*
X128668452Y-114815952D01*
X128716071Y-114768333D01*
X128811309Y-114720714D01*
X129001785Y-114720714D01*
X129097023Y-114768333D01*
X129573214Y-115292142D02*
X129620833Y-115339761D01*
X129573214Y-115387380D01*
X129525595Y-115339761D01*
X129573214Y-115292142D01*
X129573214Y-115387380D01*
X130477976Y-115387380D02*
X130477976Y-114387380D01*
X130477976Y-115339761D02*
X130382738Y-115387380D01*
X130192261Y-115387380D01*
X130097023Y-115339761D01*
X130049404Y-115292142D01*
X130001785Y-115196904D01*
X130001785Y-114911190D01*
X130049404Y-114815952D01*
X130097023Y-114768333D01*
X130192261Y-114720714D01*
X130382738Y-114720714D01*
X130477976Y-114768333D01*
X131335119Y-115339761D02*
X131239880Y-115387380D01*
X131049404Y-115387380D01*
X130954166Y-115339761D01*
X130906547Y-115244523D01*
X130906547Y-114863571D01*
X130954166Y-114768333D01*
X131049404Y-114720714D01*
X131239880Y-114720714D01*
X131335119Y-114768333D01*
X131382738Y-114863571D01*
X131382738Y-114958809D01*
X130906547Y-115054047D01*
X131716071Y-114720714D02*
X131954166Y-115387380D01*
X132192261Y-114720714D01*
X126182380Y-102824404D02*
X125182380Y-102824404D01*
X125182380Y-102586309D01*
X125230000Y-102443452D01*
X125325238Y-102348214D01*
X125420476Y-102300595D01*
X125610952Y-102252976D01*
X125753809Y-102252976D01*
X125944285Y-102300595D01*
X126039523Y-102348214D01*
X126134761Y-102443452D01*
X126182380Y-102586309D01*
X126182380Y-102824404D01*
X126087142Y-101252976D02*
X126134761Y-101300595D01*
X126182380Y-101443452D01*
X126182380Y-101538690D01*
X126134761Y-101681547D01*
X126039523Y-101776785D01*
X125944285Y-101824404D01*
X125753809Y-101872023D01*
X125610952Y-101872023D01*
X125420476Y-101824404D01*
X125325238Y-101776785D01*
X125230000Y-101681547D01*
X125182380Y-101538690D01*
X125182380Y-101443452D01*
X125230000Y-101300595D01*
X125277619Y-101252976D01*
X113419047Y-90452380D02*
X112942857Y-90452380D01*
X112942857Y-89452380D01*
X113752380Y-90452380D02*
X113752380Y-89785714D01*
X113752380Y-89452380D02*
X113704761Y-89500000D01*
X113752380Y-89547619D01*
X113800000Y-89500000D01*
X113752380Y-89452380D01*
X113752380Y-89547619D01*
X114228571Y-90452380D02*
X114228571Y-89452380D01*
X114609523Y-89452380D01*
X114704761Y-89500000D01*
X114752380Y-89547619D01*
X114800000Y-89642857D01*
X114800000Y-89785714D01*
X114752380Y-89880952D01*
X114704761Y-89928571D01*
X114609523Y-89976190D01*
X114228571Y-89976190D01*
X115371428Y-90452380D02*
X115276190Y-90404761D01*
X115228571Y-90357142D01*
X115180952Y-90261904D01*
X115180952Y-89976190D01*
X115228571Y-89880952D01*
X115276190Y-89833333D01*
X115371428Y-89785714D01*
X115514285Y-89785714D01*
X115609523Y-89833333D01*
X115657142Y-89880952D01*
X115704761Y-89976190D01*
X115704761Y-90261904D01*
X115657142Y-90357142D01*
X115609523Y-90404761D01*
X115514285Y-90452380D01*
X115371428Y-90452380D01*
X112252380Y-91776666D02*
X112728571Y-91776666D01*
X112157142Y-92062380D02*
X112490476Y-91062380D01*
X112823809Y-92062380D01*
X113157142Y-92062380D02*
X113157142Y-91395714D01*
X113157142Y-91490952D02*
X113204761Y-91443333D01*
X113300000Y-91395714D01*
X113442857Y-91395714D01*
X113538095Y-91443333D01*
X113585714Y-91538571D01*
X113585714Y-92062380D01*
X113585714Y-91538571D02*
X113633333Y-91443333D01*
X113728571Y-91395714D01*
X113871428Y-91395714D01*
X113966666Y-91443333D01*
X114014285Y-91538571D01*
X114014285Y-92062380D01*
X114490476Y-92062380D02*
X114490476Y-91395714D01*
X114490476Y-91062380D02*
X114442857Y-91110000D01*
X114490476Y-91157619D01*
X114538095Y-91110000D01*
X114490476Y-91062380D01*
X114490476Y-91157619D01*
X115395238Y-91395714D02*
X115395238Y-92205238D01*
X115347619Y-92300476D01*
X115300000Y-92348095D01*
X115204761Y-92395714D01*
X115061904Y-92395714D01*
X114966666Y-92348095D01*
X115395238Y-92014761D02*
X115300000Y-92062380D01*
X115109523Y-92062380D01*
X115014285Y-92014761D01*
X114966666Y-91967142D01*
X114919047Y-91871904D01*
X114919047Y-91586190D01*
X114966666Y-91490952D01*
X115014285Y-91443333D01*
X115109523Y-91395714D01*
X115300000Y-91395714D01*
X115395238Y-91443333D01*
X116014285Y-92062380D02*
X115919047Y-92014761D01*
X115871428Y-91967142D01*
X115823809Y-91871904D01*
X115823809Y-91586190D01*
X115871428Y-91490952D01*
X115919047Y-91443333D01*
X116014285Y-91395714D01*
X116157142Y-91395714D01*
X116252380Y-91443333D01*
X116300000Y-91490952D01*
X116347619Y-91586190D01*
X116347619Y-91871904D01*
X116300000Y-91967142D01*
X116252380Y-92014761D01*
X116157142Y-92062380D01*
X116014285Y-92062380D01*
X120102380Y-103824404D02*
X121102380Y-103491071D01*
X120102380Y-103157738D01*
X121007142Y-102252976D02*
X121054761Y-102300595D01*
X121102380Y-102443452D01*
X121102380Y-102538690D01*
X121054761Y-102681547D01*
X120959523Y-102776785D01*
X120864285Y-102824404D01*
X120673809Y-102872023D01*
X120530952Y-102872023D01*
X120340476Y-102824404D01*
X120245238Y-102776785D01*
X120150000Y-102681547D01*
X120102380Y-102538690D01*
X120102380Y-102443452D01*
X120150000Y-102300595D01*
X120197619Y-102252976D01*
X121007142Y-101252976D02*
X121054761Y-101300595D01*
X121102380Y-101443452D01*
X121102380Y-101538690D01*
X121054761Y-101681547D01*
X120959523Y-101776785D01*
X120864285Y-101824404D01*
X120673809Y-101872023D01*
X120530952Y-101872023D01*
X120340476Y-101824404D01*
X120245238Y-101776785D01*
X120150000Y-101681547D01*
X120102380Y-101538690D01*
X120102380Y-101443452D01*
X120150000Y-101300595D01*
X120197619Y-101252976D01*
X136342380Y-102967261D02*
X135866190Y-103300595D01*
X136342380Y-103538690D02*
X135342380Y-103538690D01*
X135342380Y-103157738D01*
X135390000Y-103062500D01*
X135437619Y-103014880D01*
X135532857Y-102967261D01*
X135675714Y-102967261D01*
X135770952Y-103014880D01*
X135818571Y-103062500D01*
X135866190Y-103157738D01*
X135866190Y-103538690D01*
X136294761Y-102586309D02*
X136342380Y-102443452D01*
X136342380Y-102205357D01*
X136294761Y-102110119D01*
X136247142Y-102062500D01*
X136151904Y-102014880D01*
X136056666Y-102014880D01*
X135961428Y-102062500D01*
X135913809Y-102110119D01*
X135866190Y-102205357D01*
X135818571Y-102395833D01*
X135770952Y-102491071D01*
X135723333Y-102538690D01*
X135628095Y-102586309D01*
X135532857Y-102586309D01*
X135437619Y-102538690D01*
X135390000Y-102491071D01*
X135342380Y-102395833D01*
X135342380Y-102157738D01*
X135390000Y-102014880D01*
X135342380Y-101729166D02*
X135342380Y-101157738D01*
X136342380Y-101443452D02*
X135342380Y-101443452D01*
X133802380Y-103348214D02*
X132802380Y-103348214D01*
X132802380Y-103110119D01*
X132850000Y-102967261D01*
X132945238Y-102872023D01*
X133040476Y-102824404D01*
X133230952Y-102776785D01*
X133373809Y-102776785D01*
X133564285Y-102824404D01*
X133659523Y-102872023D01*
X133754761Y-102967261D01*
X133802380Y-103110119D01*
X133802380Y-103348214D01*
X133802380Y-102348214D02*
X132802380Y-102348214D01*
X133802380Y-101872023D02*
X132802380Y-101872023D01*
X133802380Y-101300595D01*
X132802380Y-101300595D01*
D12*
X123527857Y-112208571D02*
X124385000Y-112208571D01*
X123956428Y-113708571D02*
X123956428Y-112208571D01*
X124885000Y-113708571D02*
X124885000Y-112708571D01*
X124885000Y-112208571D02*
X124813571Y-112280000D01*
X124885000Y-112351428D01*
X124956428Y-112280000D01*
X124885000Y-112208571D01*
X124885000Y-112351428D01*
X125599285Y-113708571D02*
X125599285Y-112708571D01*
X125599285Y-112851428D02*
X125670714Y-112780000D01*
X125813571Y-112708571D01*
X126027857Y-112708571D01*
X126170714Y-112780000D01*
X126242142Y-112922857D01*
X126242142Y-113708571D01*
X126242142Y-112922857D02*
X126313571Y-112780000D01*
X126456428Y-112708571D01*
X126670714Y-112708571D01*
X126813571Y-112780000D01*
X126885000Y-112922857D01*
X126885000Y-113708571D01*
X128170714Y-113637142D02*
X128027857Y-113708571D01*
X127742142Y-113708571D01*
X127599285Y-113637142D01*
X127527857Y-113494285D01*
X127527857Y-112922857D01*
X127599285Y-112780000D01*
X127742142Y-112708571D01*
X128027857Y-112708571D01*
X128170714Y-112780000D01*
X128242142Y-112922857D01*
X128242142Y-113065714D01*
X127527857Y-113208571D01*
X130885000Y-113565714D02*
X130813571Y-113637142D01*
X130599285Y-113708571D01*
X130456428Y-113708571D01*
X130242142Y-113637142D01*
X130099285Y-113494285D01*
X130027857Y-113351428D01*
X129956428Y-113065714D01*
X129956428Y-112851428D01*
X130027857Y-112565714D01*
X130099285Y-112422857D01*
X130242142Y-112280000D01*
X130456428Y-112208571D01*
X130599285Y-112208571D01*
X130813571Y-112280000D01*
X130885000Y-112351428D01*
X132170714Y-112708571D02*
X132170714Y-113708571D01*
X131527857Y-112708571D02*
X131527857Y-113494285D01*
X131599285Y-113637142D01*
X131742142Y-113708571D01*
X131956428Y-113708571D01*
X132099285Y-113637142D01*
X132170714Y-113565714D01*
X132885000Y-113708571D02*
X132885000Y-112208571D01*
X132885000Y-112780000D02*
X133027857Y-112708571D01*
X133313571Y-112708571D01*
X133456428Y-112780000D01*
X133527857Y-112851428D01*
X133599285Y-112994285D01*
X133599285Y-113422857D01*
X133527857Y-113565714D01*
X133456428Y-113637142D01*
X133313571Y-113708571D01*
X133027857Y-113708571D01*
X132885000Y-113637142D01*
X134813571Y-113637142D02*
X134670714Y-113708571D01*
X134385000Y-113708571D01*
X134242142Y-113637142D01*
X134170714Y-113494285D01*
X134170714Y-112922857D01*
X134242142Y-112780000D01*
X134385000Y-112708571D01*
X134670714Y-112708571D01*
X134813571Y-112780000D01*
X134885000Y-112922857D01*
X134885000Y-113065714D01*
X134170714Y-113208571D01*
D11*
%TO.C,R1*%
X106497380Y-105306666D02*
X106497380Y-105878095D01*
X106497380Y-105592380D02*
X105497380Y-105592380D01*
X105640238Y-105687619D01*
X105735476Y-105782857D01*
X105783095Y-105878095D01*
X105497380Y-104687619D02*
X105497380Y-104592380D01*
X105545000Y-104497142D01*
X105592619Y-104449523D01*
X105687857Y-104401904D01*
X105878333Y-104354285D01*
X106116428Y-104354285D01*
X106306904Y-104401904D01*
X106402142Y-104449523D01*
X106449761Y-104497142D01*
X106497380Y-104592380D01*
X106497380Y-104687619D01*
X106449761Y-104782857D01*
X106402142Y-104830476D01*
X106306904Y-104878095D01*
X106116428Y-104925714D01*
X105878333Y-104925714D01*
X105687857Y-104878095D01*
X105592619Y-104830476D01*
X105545000Y-104782857D01*
X105497380Y-104687619D01*
X105497380Y-103735238D02*
X105497380Y-103640000D01*
X105545000Y-103544761D01*
X105592619Y-103497142D01*
X105687857Y-103449523D01*
X105878333Y-103401904D01*
X106116428Y-103401904D01*
X106306904Y-103449523D01*
X106402142Y-103497142D01*
X106449761Y-103544761D01*
X106497380Y-103640000D01*
X106497380Y-103735238D01*
X106449761Y-103830476D01*
X106402142Y-103878095D01*
X106306904Y-103925714D01*
X106116428Y-103973333D01*
X105878333Y-103973333D01*
X105687857Y-103925714D01*
X105592619Y-103878095D01*
X105545000Y-103830476D01*
X105497380Y-103735238D01*
X106497380Y-102973333D02*
X105497380Y-102973333D01*
X106497380Y-102401904D02*
X105925952Y-102830476D01*
X105497380Y-102401904D02*
X106068809Y-102973333D01*
%TO.C,D1*%
X113356904Y-75442380D02*
X113356904Y-74442380D01*
X113595000Y-74442380D01*
X113737857Y-74490000D01*
X113833095Y-74585238D01*
X113880714Y-74680476D01*
X113928333Y-74870952D01*
X113928333Y-75013809D01*
X113880714Y-75204285D01*
X113833095Y-75299523D01*
X113737857Y-75394761D01*
X113595000Y-75442380D01*
X113356904Y-75442380D01*
X114880714Y-75442380D02*
X114309285Y-75442380D01*
X114595000Y-75442380D02*
X114595000Y-74442380D01*
X114499761Y-74585238D01*
X114404523Y-74680476D01*
X114309285Y-74728095D01*
%TO.C,R2*%
X105513333Y-111577380D02*
X104941904Y-111577380D01*
X105227619Y-111577380D02*
X105227619Y-110577380D01*
X105132380Y-110720238D01*
X105037142Y-110815476D01*
X104941904Y-110863095D01*
X106132380Y-110577380D02*
X106227619Y-110577380D01*
X106322857Y-110625000D01*
X106370476Y-110672619D01*
X106418095Y-110767857D01*
X106465714Y-110958333D01*
X106465714Y-111196428D01*
X106418095Y-111386904D01*
X106370476Y-111482142D01*
X106322857Y-111529761D01*
X106227619Y-111577380D01*
X106132380Y-111577380D01*
X106037142Y-111529761D01*
X105989523Y-111482142D01*
X105941904Y-111386904D01*
X105894285Y-111196428D01*
X105894285Y-110958333D01*
X105941904Y-110767857D01*
X105989523Y-110672619D01*
X106037142Y-110625000D01*
X106132380Y-110577380D01*
X107084761Y-110577380D02*
X107180000Y-110577380D01*
X107275238Y-110625000D01*
X107322857Y-110672619D01*
X107370476Y-110767857D01*
X107418095Y-110958333D01*
X107418095Y-111196428D01*
X107370476Y-111386904D01*
X107322857Y-111482142D01*
X107275238Y-111529761D01*
X107180000Y-111577380D01*
X107084761Y-111577380D01*
X106989523Y-111529761D01*
X106941904Y-111482142D01*
X106894285Y-111386904D01*
X106846666Y-111196428D01*
X106846666Y-110958333D01*
X106894285Y-110767857D01*
X106941904Y-110672619D01*
X106989523Y-110625000D01*
X107084761Y-110577380D01*
X107846666Y-111577380D02*
X107846666Y-110577380D01*
X108418095Y-111577380D02*
X107989523Y-111005952D01*
X108418095Y-110577380D02*
X107846666Y-111148809D01*
D13*
%TO.C,U5*%
X119320000Y-100425000D02*
X139640000Y-100425000D01*
X139640000Y-100425000D02*
X139640000Y-97885000D01*
X139640000Y-97885000D02*
X119320000Y-97885000D01*
X119320000Y-97885000D02*
X119320000Y-100425000D01*
%TO.C,U3*%
X121666000Y-70231000D02*
X139954000Y-70231000D01*
X139954000Y-70231000D02*
X139954000Y-91567000D01*
X139954000Y-91567000D02*
X121666000Y-91567000D01*
X121666000Y-91567000D02*
X121666000Y-70231000D01*
%TO.C,R1*%
X102135000Y-100870000D02*
X102135000Y-107410000D01*
X104875000Y-107410000D02*
X104875000Y-100870000D01*
X103505000Y-108180000D02*
X103505000Y-107410000D01*
X104875000Y-100870000D02*
X102135000Y-100870000D01*
X103505000Y-100100000D02*
X103505000Y-100870000D01*
X102135000Y-107410000D02*
X104875000Y-107410000D01*
%TO.C,D1*%
X115700000Y-76050000D02*
X115700000Y-73810000D01*
X112180000Y-76050000D02*
X116420000Y-76050000D01*
X116420000Y-76050000D02*
X116420000Y-73810000D01*
X112180000Y-73810000D02*
X112180000Y-76050000D01*
X115580000Y-76050000D02*
X115580000Y-73810000D01*
X116420000Y-73810000D02*
X112180000Y-73810000D01*
X115820000Y-76050000D02*
X115820000Y-73810000D01*
X117070000Y-74930000D02*
X116420000Y-74930000D01*
X111530000Y-74930000D02*
X112180000Y-74930000D01*
%TO.C,U1*%
X100076000Y-69977000D02*
X121412000Y-69977000D01*
X121412000Y-69977000D02*
X121412000Y-96393000D01*
X121412000Y-96393000D02*
X100076000Y-96393000D01*
X100076000Y-96393000D02*
X100076000Y-69977000D01*
%TO.C,R2*%
X103410000Y-115035000D02*
X109950000Y-115035000D01*
X102640000Y-113665000D02*
X103410000Y-113665000D01*
X109950000Y-112295000D02*
X103410000Y-112295000D01*
X110720000Y-113665000D02*
X109950000Y-113665000D01*
X103410000Y-112295000D02*
X103410000Y-115035000D01*
X109950000Y-115035000D02*
X109950000Y-112295000D01*
%TD*%
M02*
