%TF.GenerationSoftware,KiCad,Pcbnew,6.0.2+dfsg-1*%
%TF.CreationDate,2022-09-04T12:32:50+10:00*%
%TF.ProjectId,pcb,7063622e-6b69-4636-9164-5f7063625858,rev?*%
%TF.SameCoordinates,Original*%
%TF.FileFunction,Soldermask,Bot*%
%TF.FilePolarity,Negative*%
%FSLAX46Y46*%
G04 Gerber Fmt 4.6, Leading zero omitted, Abs format (unit mm)*
G04 Created by KiCad (PCBNEW 6.0.2+dfsg-1) date 2022-09-04 12:32:50*
%MOMM*%
%LPD*%
G01*
G04 APERTURE LIST*
%ADD10C,1.524000*%
%ADD11C,1.600000*%
%ADD12O,1.600000X1.600000*%
%ADD13R,1.600000X1.600000*%
%ADD14C,2.000000*%
G04 APERTURE END LIST*
D10*
%TO.C,U3*%
X123190000Y-74380000D03*
X123190000Y-76920000D03*
X123190000Y-79460000D03*
X123190000Y-82000000D03*
X123190000Y-84540000D03*
X123190000Y-87080000D03*
X123190000Y-89620000D03*
X123190000Y-92160000D03*
X138430000Y-92160000D03*
X138430000Y-89620000D03*
X138430000Y-87080000D03*
X138430000Y-84540000D03*
X138430000Y-82000000D03*
X138430000Y-79460000D03*
X138430000Y-76920000D03*
X138430000Y-74380000D03*
%TD*%
%TO.C,U2*%
X115792000Y-113030000D03*
X115792000Y-110490000D03*
X115792000Y-107950000D03*
X115792000Y-105410000D03*
X115792000Y-102870000D03*
%TD*%
%TO.C,U5*%
X120590000Y-99155000D03*
X123130000Y-99155000D03*
X125670000Y-99155000D03*
X128210000Y-99155000D03*
X130750000Y-99155000D03*
X133290000Y-99155000D03*
X135830000Y-99155000D03*
X138370000Y-99155000D03*
%TD*%
D11*
%TO.C,R1*%
X108200000Y-100520000D03*
D12*
X108200000Y-110680000D03*
%TD*%
D13*
%TO.C,D1*%
X117810000Y-75000000D03*
D12*
X110190000Y-75000000D03*
%TD*%
D10*
%TO.C,U1*%
X101600000Y-78105000D03*
X101600000Y-80645000D03*
X101600000Y-83185000D03*
X101600000Y-85725000D03*
X101600000Y-88265000D03*
%TD*%
D11*
%TO.C,R2*%
X111400000Y-110680000D03*
D12*
X111400000Y-100520000D03*
%TD*%
D14*
%TO.C,SW1*%
X118125000Y-71875000D03*
X110125000Y-71875000D03*
D10*
X116125000Y-71875000D03*
X114125000Y-71875000D03*
X112125000Y-71875000D03*
%TD*%
M02*
