M48
; DRILL file {KiCad 6.0.2+dfsg-1} date Sun 04 Sep 2022 12:32:47
; FORMAT={-:-/ absolute / inch / decimal}
; #@! TF.CreationDate,2022-09-04T12:32:47+10:00
; #@! TF.GenerationSoftware,Kicad,Pcbnew,6.0.2+dfsg-1
; #@! TF.FileFunction,Plated,1,2,PTH
FMAT,2
INCH
; #@! TA.AperFunction,Plated,PTH,ViaDrill
T1C0.0157
; #@! TA.AperFunction,Plated,PTH,ComponentDrill
T2C0.0300
; #@! TA.AperFunction,Plated,PTH,ComponentDrill
T3C0.0315
%
G90
G05
T1
X4.7035Y-3.7106
X4.8425Y-3.7106
T2
X4.0Y-3.075
X4.0Y-3.175
X4.0Y-3.275
X4.0Y-3.375
X4.0Y-3.475
X4.4144Y-2.8297
X4.4931Y-2.8297
X4.5587Y-4.05
X4.5587Y-4.15
X4.5587Y-4.25
X4.5587Y-4.35
X4.5587Y-4.45
X4.5719Y-2.8297
X4.7476Y-3.9037
X4.8476Y-3.9037
X4.85Y-2.9283
X4.85Y-3.0283
X4.85Y-3.1283
X4.85Y-3.2283
X4.85Y-3.3283
X4.85Y-3.4283
X4.85Y-3.5283
X4.85Y-3.6283
X4.9476Y-3.9037
X5.0476Y-3.9037
X5.1476Y-3.9037
X5.2476Y-3.9037
X5.3476Y-3.9037
X5.4476Y-3.9037
X5.45Y-2.9283
X5.45Y-3.0283
X5.45Y-3.1283
X5.45Y-3.2283
X5.45Y-3.3283
X5.45Y-3.4283
X5.45Y-3.5283
X5.45Y-3.6283
T3
X4.2598Y-3.9575
X4.2598Y-4.3575
X4.3382Y-2.9528
X4.3858Y-3.9575
X4.3858Y-4.3575
X4.6382Y-2.9528
T0
M30
