%TF.GenerationSoftware,KiCad,Pcbnew,6.0.2+dfsg-1*%
%TF.CreationDate,2022-09-04T12:32:50+10:00*%
%TF.ProjectId,pcb,7063622e-6b69-4636-9164-5f7063625858,rev?*%
%TF.SameCoordinates,Original*%
%TF.FileFunction,Copper,L1,Top*%
%TF.FilePolarity,Positive*%
%FSLAX46Y46*%
G04 Gerber Fmt 4.6, Leading zero omitted, Abs format (unit mm)*
G04 Created by KiCad (PCBNEW 6.0.2+dfsg-1) date 2022-09-04 12:32:50*
%MOMM*%
%LPD*%
G01*
G04 APERTURE LIST*
%TA.AperFunction,NonConductor*%
%ADD10C,0.200000*%
%TD*%
%TA.AperFunction,ComponentPad*%
%ADD11C,1.524000*%
%TD*%
%TA.AperFunction,ComponentPad*%
%ADD12C,1.600000*%
%TD*%
%TA.AperFunction,ComponentPad*%
%ADD13O,1.600000X1.600000*%
%TD*%
%TA.AperFunction,ComponentPad*%
%ADD14R,1.600000X1.600000*%
%TD*%
%TA.AperFunction,WasherPad*%
%ADD15C,2.000000*%
%TD*%
%TA.AperFunction,ViaPad*%
%ADD16C,0.800000*%
%TD*%
%TA.AperFunction,Conductor*%
%ADD17C,0.250000*%
%TD*%
G04 APERTURE END LIST*
D10*
X101200000Y-103200000D02*
X103000000Y-103200000D01*
X103000000Y-103200000D02*
X103000000Y-101400000D01*
X103600000Y-103800000D02*
X103000000Y-103200000D01*
D11*
%TO.P,U3,1,VBUS*%
%TO.N,Net-(D1-Pad1)*%
X123190000Y-74380000D03*
%TO.P,U3,2,GND*%
%TO.N,/GND*%
X123190000Y-76920000D03*
%TO.P,U3,3,3V3*%
%TO.N,/VCC*%
X123190000Y-79460000D03*
%TO.P,U3,4,GP29*%
%TO.N,Net-(R1-Pad2)*%
X123190000Y-82000000D03*
%TO.P,U3,5,GP28*%
%TO.N,Net-(U3-Pad5)*%
X123190000Y-84540000D03*
%TO.P,U3,6,GP27*%
%TO.N,Net-(U2-Pad3)*%
X123190000Y-87080000D03*
%TO.P,U3,7,GP26*%
%TO.N,Net-(U3-Pad7)*%
X123190000Y-89620000D03*
%TO.P,U3,8,GND*%
%TO.N,/GND*%
X123190000Y-92160000D03*
%TO.P,U3,9,GP7*%
%TO.N,Net-(U1-Pad2)*%
X138430000Y-92160000D03*
%TO.P,U3,10,GP6*%
%TO.N,unconnected-(U3-Pad10)*%
X138430000Y-89620000D03*
%TO.P,U3,11,GP5*%
%TO.N,Net-(U3-Pad11)*%
X138430000Y-87080000D03*
%TO.P,U3,12,GP4*%
%TO.N,Net-(U3-Pad12)*%
X138430000Y-84540000D03*
%TO.P,U3,13,GP3*%
%TO.N,Net-(U3-Pad13)*%
X138430000Y-82000000D03*
%TO.P,U3,14,GP2*%
%TO.N,Net-(U3-Pad14)*%
X138430000Y-79460000D03*
%TO.P,U3,15,GP1*%
%TO.N,Net-(U3-Pad15)*%
X138430000Y-76920000D03*
%TO.P,U3,16,GP0*%
%TO.N,Net-(U3-Pad16)*%
X138430000Y-74380000D03*
%TD*%
%TO.P,U2,1,VCC*%
%TO.N,/VCC*%
X115792000Y-113030000D03*
%TO.P,U2,2,X*%
%TO.N,Net-(U3-Pad7)*%
X115792000Y-110490000D03*
%TO.P,U2,3,Y*%
%TO.N,Net-(U2-Pad3)*%
X115792000Y-107950000D03*
%TO.P,U2,4,Z*%
%TO.N,Net-(U3-Pad5)*%
X115792000Y-105410000D03*
%TO.P,U2,5,GND*%
%TO.N,/GND*%
X115792000Y-102870000D03*
%TD*%
%TO.P,U5,1,VCC*%
%TO.N,/VCC*%
X120590000Y-99155000D03*
%TO.P,U5,2,GND*%
%TO.N,/GND*%
X123130000Y-99155000D03*
%TO.P,U5,3,DC*%
%TO.N,Net-(U3-Pad16)*%
X125670000Y-99155000D03*
%TO.P,U5,4,CS*%
%TO.N,Net-(U3-Pad15)*%
X128210000Y-99155000D03*
%TO.P,U5,5,CLK*%
%TO.N,Net-(U3-Pad14)*%
X130750000Y-99155000D03*
%TO.P,U5,6,DIN*%
%TO.N,Net-(U3-Pad13)*%
X133290000Y-99155000D03*
%TO.P,U5,7,RST*%
%TO.N,Net-(U3-Pad12)*%
X135830000Y-99155000D03*
%TO.P,U5,8,BUSY*%
%TO.N,Net-(U3-Pad11)*%
X138370000Y-99155000D03*
%TD*%
D12*
%TO.P,R1,1*%
%TO.N,Net-(D1-Pad1)*%
X108200000Y-100520000D03*
D13*
%TO.P,R1,2*%
%TO.N,Net-(R1-Pad2)*%
X108200000Y-110680000D03*
%TD*%
D14*
%TO.P,D1,1,K*%
%TO.N,Net-(D1-Pad1)*%
X117810000Y-75000000D03*
D13*
%TO.P,D1,2,A*%
%TO.N,Net-(D1-Pad2)*%
X110190000Y-75000000D03*
%TD*%
D11*
%TO.P,U1,1,GND*%
%TO.N,unconnected-(U1-Pad1)*%
X101600000Y-78105000D03*
%TO.P,U1,2,5V*%
%TO.N,Net-(U1-Pad2)*%
X101600000Y-80645000D03*
%TO.P,U1,3,CH*%
%TO.N,unconnected-(U1-Pad3)*%
X101600000Y-83185000D03*
%TO.P,U1,4,VBAT*%
%TO.N,Net-(SW1-Pad2)*%
X101600000Y-85725000D03*
%TO.P,U1,5,GND*%
%TO.N,/GND*%
X101600000Y-88265000D03*
%TD*%
D12*
%TO.P,R2,1*%
%TO.N,Net-(R1-Pad2)*%
X111400000Y-110680000D03*
D13*
%TO.P,R2,2*%
%TO.N,/GND*%
X111400000Y-100520000D03*
%TD*%
D15*
%TO.P,SW1,*%
%TO.N,*%
X118125000Y-71875000D03*
X110125000Y-71875000D03*
D11*
%TO.P,SW1,1,A*%
%TO.N,unconnected-(SW1-Pad1)*%
X116125000Y-71875000D03*
%TO.P,SW1,2,B*%
%TO.N,Net-(SW1-Pad2)*%
X114125000Y-71875000D03*
%TO.P,SW1,3,C*%
%TO.N,Net-(D1-Pad2)*%
X112125000Y-71875000D03*
%TD*%
D16*
%TO.N,Net-(U1-Pad2)*%
X119469500Y-94250000D03*
X123000000Y-94250000D03*
%TD*%
D17*
%TO.N,Net-(U3-Pad5)*%
X115792000Y-105410000D02*
X117475000Y-103727000D01*
%TO.N,Net-(U2-Pad3)*%
X115792000Y-107950000D02*
X118110000Y-105632000D01*
%TO.N,Net-(U3-Pad7)*%
X115792000Y-110490000D02*
X118745000Y-107537000D01*
%TO.N,/VCC*%
X115792000Y-113030000D02*
X120590000Y-108232000D01*
%TO.N,Net-(R1-Pad2)*%
X113400000Y-85989282D02*
X117389282Y-82000000D01*
X117389282Y-82000000D02*
X123190000Y-82000000D01*
%TO.N,Net-(U3-Pad5)*%
X117475000Y-85090000D02*
X118025000Y-84540000D01*
X118025000Y-84540000D02*
X123190000Y-84540000D01*
%TO.N,Net-(U2-Pad3)*%
X118110000Y-87630000D02*
X118660000Y-87080000D01*
X118660000Y-87080000D02*
X123190000Y-87080000D01*
%TO.N,Net-(U3-Pad7)*%
X118745000Y-90170000D02*
X119295000Y-89620000D01*
X119295000Y-89620000D02*
X123190000Y-89620000D01*
%TO.N,Net-(U3-Pad16)*%
X125670000Y-99155000D02*
X125670000Y-87140000D01*
X125670000Y-87140000D02*
X138430000Y-74380000D01*
%TO.N,Net-(U3-Pad15)*%
X128210000Y-99155000D02*
X128210000Y-87140000D01*
X128210000Y-87140000D02*
X138430000Y-76920000D01*
%TO.N,Net-(U3-Pad14)*%
X130750000Y-99155000D02*
X130750000Y-87140000D01*
X130750000Y-87140000D02*
X138430000Y-79460000D01*
%TO.N,Net-(U3-Pad13)*%
X133290000Y-99155000D02*
X133290000Y-87140000D01*
X133290000Y-87140000D02*
X138430000Y-82000000D01*
%TO.N,Net-(U3-Pad12)*%
X135830000Y-99155000D02*
X135830000Y-87140000D01*
X135830000Y-87140000D02*
X138430000Y-84540000D01*
%TO.N,Net-(U3-Pad11)*%
X136525000Y-95885000D02*
X136525000Y-88985000D01*
X136525000Y-88985000D02*
X138430000Y-87080000D01*
X138370000Y-99155000D02*
X138370000Y-97730000D01*
X138370000Y-97730000D02*
X136525000Y-95885000D01*
%TO.N,Net-(U1-Pad2)*%
X119469500Y-94250000D02*
X123000000Y-94250000D01*
%TO.N,Net-(D1-Pad1)*%
X117810000Y-75000000D02*
X122570000Y-75000000D01*
X122570000Y-75000000D02*
X123190000Y-74380000D01*
%TO.N,/VCC*%
X120590000Y-108232000D02*
X120590000Y-99155000D01*
%TO.N,Net-(U3-Pad7)*%
X118745000Y-107537000D02*
X118745000Y-90170000D01*
%TO.N,Net-(U2-Pad3)*%
X118110000Y-105632000D02*
X118110000Y-87630000D01*
%TO.N,Net-(U3-Pad5)*%
X117475000Y-103727000D02*
X117475000Y-85090000D01*
%TO.N,Net-(D1-Pad1)*%
X117810000Y-78590000D02*
X117810000Y-75000000D01*
X108200000Y-88200000D02*
X117810000Y-78590000D01*
X108200000Y-100520000D02*
X108200000Y-88200000D01*
%TO.N,Net-(R1-Pad2)*%
X113400000Y-108680000D02*
X113400000Y-85989282D01*
X111400000Y-110680000D02*
X113400000Y-108680000D01*
X108200000Y-110680000D02*
X111400000Y-110680000D01*
%TO.N,/VCC*%
X120495000Y-99060000D02*
X120590000Y-99155000D01*
%TO.N,Net-(U3-Pad11)*%
X138370000Y-99155000D02*
X138370000Y-99120000D01*
X138370000Y-99120000D02*
X138430000Y-99060000D01*
%TO.N,Net-(SW1-Pad2)*%
X114125000Y-74277630D02*
X114125000Y-71875000D01*
X101600000Y-85725000D02*
X102677630Y-85725000D01*
X102677630Y-85725000D02*
X114125000Y-74277630D01*
%TO.N,Net-(D1-Pad2)*%
X112125000Y-74875000D02*
X112125000Y-71875000D01*
X112000000Y-75000000D02*
X112125000Y-74875000D01*
X110190000Y-75000000D02*
X112000000Y-75000000D01*
%TD*%
M02*
