%TF.GenerationSoftware,KiCad,Pcbnew,6.0.2+dfsg-1*%
%TF.CreationDate,2022-08-14T14:56:28+10:00*%
%TF.ProjectId,pcb,7063622e-6b69-4636-9164-5f7063625858,rev?*%
%TF.SameCoordinates,Original*%
%TF.FileFunction,Copper,L2,Bot*%
%TF.FilePolarity,Positive*%
%FSLAX46Y46*%
G04 Gerber Fmt 4.6, Leading zero omitted, Abs format (unit mm)*
G04 Created by KiCad (PCBNEW 6.0.2+dfsg-1) date 2022-08-14 14:56:28*
%MOMM*%
%LPD*%
G01*
G04 APERTURE LIST*
%TA.AperFunction,ComponentPad*%
%ADD10C,1.524000*%
%TD*%
%TA.AperFunction,WasherPad*%
%ADD11C,2.000000*%
%TD*%
%TA.AperFunction,ComponentPad*%
%ADD12C,1.600000*%
%TD*%
%TA.AperFunction,ComponentPad*%
%ADD13O,1.600000X1.600000*%
%TD*%
%TA.AperFunction,ComponentPad*%
%ADD14R,1.600000X1.600000*%
%TD*%
%TA.AperFunction,ViaPad*%
%ADD15C,0.800000*%
%TD*%
%TA.AperFunction,Conductor*%
%ADD16C,0.250000*%
%TD*%
G04 APERTURE END LIST*
D10*
%TO.P,SW1,3,C*%
%TO.N,Net-(SW1-Pad3)*%
X112125000Y-71875000D03*
%TO.P,SW1,2,B*%
%TO.N,Net-(U1-Pad4)*%
X114125000Y-71875000D03*
%TO.P,SW1,1,A*%
%TO.N,unconnected-(SW1-Pad1)*%
X116125000Y-71875000D03*
D11*
%TO.P,SW1,*%
%TO.N,*%
X118125000Y-71875000D03*
X110125000Y-71875000D03*
%TD*%
D10*
%TO.P,U5,1,VCC*%
%TO.N,/VCC*%
X120590000Y-99155000D03*
%TO.P,U5,2,GND*%
%TO.N,/GND*%
X123130000Y-99155000D03*
%TO.P,U5,3,DC*%
%TO.N,Net-(U5-Pad3)*%
X125670000Y-99155000D03*
%TO.P,U5,4,CS*%
%TO.N,Net-(U5-Pad4)*%
X128210000Y-99155000D03*
%TO.P,U5,5,CLK*%
%TO.N,Net-(U5-Pad5)*%
X130750000Y-99155000D03*
%TO.P,U5,6,DIN*%
%TO.N,Net-(U5-Pad6)*%
X133290000Y-99155000D03*
%TO.P,U5,7,RST*%
%TO.N,Net-(U5-Pad7)*%
X135830000Y-99155000D03*
%TO.P,U5,8,BUSY*%
%TO.N,Net-(U5-Pad8)*%
X138370000Y-99155000D03*
%TD*%
%TO.P,U3,1,VBUS*%
%TO.N,Net-(R1-Pad1)*%
X123190000Y-71755000D03*
%TO.P,U3,2,GND*%
%TO.N,/GND*%
X123190000Y-74295000D03*
%TO.P,U3,3,3V3*%
%TO.N,/VCC*%
X123190000Y-76835000D03*
%TO.P,U3,4,GP29*%
%TO.N,Net-(R1-Pad2)*%
X123190000Y-79375000D03*
%TO.P,U3,5,GP28*%
%TO.N,Net-(U2-Pad2)*%
X123190000Y-81915000D03*
%TO.P,U3,6,GP27*%
%TO.N,Net-(U2-Pad3)*%
X123190000Y-84455000D03*
%TO.P,U3,7,GP26*%
%TO.N,Net-(U2-Pad4)*%
X123190000Y-86995000D03*
%TO.P,U3,8,GND*%
%TO.N,/GND*%
X123190000Y-89535000D03*
%TO.P,U3,9,GP7*%
%TO.N,Net-(U3-Pad9)*%
X138430000Y-89535000D03*
%TO.P,U3,10,GP6*%
%TO.N,unconnected-(U3-Pad10)*%
X138430000Y-86995000D03*
%TO.P,U3,11,GP5*%
%TO.N,Net-(U5-Pad8)*%
X138430000Y-84455000D03*
%TO.P,U3,12,GP4*%
%TO.N,Net-(U5-Pad7)*%
X138430000Y-81915000D03*
%TO.P,U3,13,GP3*%
%TO.N,Net-(U5-Pad6)*%
X138430000Y-79375000D03*
%TO.P,U3,14,GP2*%
%TO.N,Net-(U5-Pad5)*%
X138430000Y-76835000D03*
%TO.P,U3,15,GP1*%
%TO.N,Net-(U5-Pad4)*%
X138430000Y-74295000D03*
%TO.P,U3,16,GP0*%
%TO.N,Net-(U5-Pad3)*%
X138430000Y-71755000D03*
%TD*%
D12*
%TO.P,R1,1*%
%TO.N,Net-(R1-Pad1)*%
X108200000Y-100520000D03*
D13*
%TO.P,R1,2*%
%TO.N,Net-(R1-Pad2)*%
X108200000Y-110680000D03*
%TD*%
D14*
%TO.P,D1,1,K*%
%TO.N,Net-(R1-Pad1)*%
X117810000Y-75000000D03*
D13*
%TO.P,D1,2,A*%
%TO.N,Net-(SW1-Pad3)*%
X110190000Y-75000000D03*
%TD*%
D10*
%TO.P,U1,1,GND*%
%TO.N,unconnected-(U1-Pad1)*%
X101600000Y-78105000D03*
%TO.P,U1,2,5V*%
%TO.N,Net-(U3-Pad9)*%
X101600000Y-80645000D03*
%TO.P,U1,3,CH*%
%TO.N,unconnected-(U1-Pad3)*%
X101600000Y-83185000D03*
%TO.P,U1,4,VBAT*%
%TO.N,Net-(U1-Pad4)*%
X101600000Y-85725000D03*
%TO.P,U1,5,GND*%
%TO.N,/GND*%
X101600000Y-88265000D03*
%TD*%
D13*
%TO.P,R2,2*%
%TO.N,/GND*%
X111400000Y-100520000D03*
D12*
%TO.P,R2,1*%
%TO.N,Net-(R1-Pad2)*%
X111400000Y-110680000D03*
%TD*%
D10*
%TO.P,U2,1,VCC*%
%TO.N,/VCC*%
X115570000Y-103505000D03*
%TO.P,U2,2,X*%
%TO.N,Net-(U2-Pad2)*%
X115570000Y-106045000D03*
%TO.P,U2,3,Y*%
%TO.N,Net-(U2-Pad3)*%
X115570000Y-108585000D03*
%TO.P,U2,4,Z*%
%TO.N,Net-(U2-Pad4)*%
X115570000Y-111125000D03*
%TO.P,U2,5,GND*%
%TO.N,/GND*%
X115570000Y-113665000D03*
%TD*%
D15*
%TO.N,Net-(U3-Pad9)*%
X119500000Y-93500000D03*
X122500000Y-93500000D03*
%TD*%
D16*
%TO.N,Net-(U3-Pad9)*%
X122500000Y-93500000D02*
X138000000Y-93500000D01*
X116000000Y-93500000D02*
X119500000Y-93500000D01*
X101600000Y-80645000D02*
X103145000Y-80645000D01*
X103145000Y-80645000D02*
X116000000Y-93500000D01*
X138000000Y-93500000D02*
X138430000Y-93070000D01*
X138430000Y-93070000D02*
X138430000Y-89535000D01*
%TO.N,/VCC*%
X120590000Y-99155000D02*
X120590000Y-79435000D01*
X116110000Y-99155000D02*
X120590000Y-99155000D01*
X115570000Y-99695000D02*
X116110000Y-99155000D01*
X115570000Y-103505000D02*
X115570000Y-99695000D01*
X120590000Y-79435000D02*
X123190000Y-76835000D01*
%TD*%
%TA.AperFunction,Conductor*%
%TO.N,/GND*%
G36*
X109129392Y-70528002D02*
G01*
X109175885Y-70581658D01*
X109185989Y-70651932D01*
X109156495Y-70716512D01*
X109143102Y-70729811D01*
X109058795Y-70801816D01*
X109055031Y-70805031D01*
X108900824Y-70985584D01*
X108898245Y-70989792D01*
X108898241Y-70989798D01*
X108838002Y-71088099D01*
X108776760Y-71188037D01*
X108685895Y-71407406D01*
X108630465Y-71638289D01*
X108611835Y-71875000D01*
X108630465Y-72111711D01*
X108631619Y-72116518D01*
X108631620Y-72116524D01*
X108666640Y-72262391D01*
X108685895Y-72342594D01*
X108687788Y-72347165D01*
X108687789Y-72347167D01*
X108706640Y-72392676D01*
X108776760Y-72561963D01*
X108779346Y-72566183D01*
X108898241Y-72760202D01*
X108898245Y-72760208D01*
X108900824Y-72764416D01*
X109055031Y-72944969D01*
X109235584Y-73099176D01*
X109239792Y-73101755D01*
X109239798Y-73101759D01*
X109390488Y-73194102D01*
X109438037Y-73223240D01*
X109442607Y-73225133D01*
X109442611Y-73225135D01*
X109652833Y-73312211D01*
X109657406Y-73314105D01*
X109737609Y-73333360D01*
X109883476Y-73368380D01*
X109883482Y-73368381D01*
X109888289Y-73369535D01*
X110125000Y-73388165D01*
X110361711Y-73369535D01*
X110366518Y-73368381D01*
X110366524Y-73368380D01*
X110512391Y-73333360D01*
X110592594Y-73314105D01*
X110597167Y-73312211D01*
X110807389Y-73225135D01*
X110807393Y-73225133D01*
X110811963Y-73223240D01*
X110859512Y-73194102D01*
X111010202Y-73101759D01*
X111010208Y-73101755D01*
X111014416Y-73099176D01*
X111151829Y-72981814D01*
X111191205Y-72948184D01*
X111191207Y-72948182D01*
X111194969Y-72944969D01*
X111211600Y-72925497D01*
X111271049Y-72886689D01*
X111342043Y-72886183D01*
X111379679Y-72904116D01*
X111482809Y-72976328D01*
X111482814Y-72976331D01*
X111487323Y-72979488D01*
X111492305Y-72981811D01*
X111492310Y-72981814D01*
X111596403Y-73030353D01*
X111688804Y-73073440D01*
X111694112Y-73074862D01*
X111694114Y-73074863D01*
X111759108Y-73092278D01*
X111903537Y-73130978D01*
X112125000Y-73150353D01*
X112346463Y-73130978D01*
X112490892Y-73092278D01*
X112555886Y-73074863D01*
X112555888Y-73074862D01*
X112561196Y-73073440D01*
X112653597Y-73030353D01*
X112757690Y-72981814D01*
X112757695Y-72981811D01*
X112762677Y-72979488D01*
X112902721Y-72881428D01*
X112940270Y-72855136D01*
X112940273Y-72855134D01*
X112944781Y-72851977D01*
X113035905Y-72760853D01*
X113098217Y-72726827D01*
X113169032Y-72731892D01*
X113214095Y-72760853D01*
X113305219Y-72851977D01*
X113309727Y-72855134D01*
X113309730Y-72855136D01*
X113347279Y-72881428D01*
X113487323Y-72979488D01*
X113492305Y-72981811D01*
X113492310Y-72981814D01*
X113596403Y-73030353D01*
X113688804Y-73073440D01*
X113694112Y-73074862D01*
X113694114Y-73074863D01*
X113759108Y-73092278D01*
X113903537Y-73130978D01*
X114125000Y-73150353D01*
X114346463Y-73130978D01*
X114490892Y-73092278D01*
X114555886Y-73074863D01*
X114555888Y-73074862D01*
X114561196Y-73073440D01*
X114653597Y-73030353D01*
X114757690Y-72981814D01*
X114757695Y-72981811D01*
X114762677Y-72979488D01*
X114902721Y-72881428D01*
X114940270Y-72855136D01*
X114940273Y-72855134D01*
X114944781Y-72851977D01*
X115035905Y-72760853D01*
X115098217Y-72726827D01*
X115169032Y-72731892D01*
X115214095Y-72760853D01*
X115305219Y-72851977D01*
X115309727Y-72855134D01*
X115309730Y-72855136D01*
X115347279Y-72881428D01*
X115487323Y-72979488D01*
X115492305Y-72981811D01*
X115492310Y-72981814D01*
X115596403Y-73030353D01*
X115688804Y-73073440D01*
X115694112Y-73074862D01*
X115694114Y-73074863D01*
X115759108Y-73092278D01*
X115903537Y-73130978D01*
X116125000Y-73150353D01*
X116346463Y-73130978D01*
X116490892Y-73092278D01*
X116555886Y-73074863D01*
X116555888Y-73074862D01*
X116561196Y-73073440D01*
X116653597Y-73030353D01*
X116757690Y-72981814D01*
X116757695Y-72981811D01*
X116762677Y-72979488D01*
X116767186Y-72976331D01*
X116767191Y-72976328D01*
X116870321Y-72904116D01*
X116937595Y-72881428D01*
X117006455Y-72898713D01*
X117038399Y-72925496D01*
X117055031Y-72944969D01*
X117058793Y-72948182D01*
X117058795Y-72948184D01*
X117098171Y-72981814D01*
X117235584Y-73099176D01*
X117239792Y-73101755D01*
X117239798Y-73101759D01*
X117390488Y-73194102D01*
X117438037Y-73223240D01*
X117442607Y-73225133D01*
X117442611Y-73225135D01*
X117652833Y-73312211D01*
X117657406Y-73314105D01*
X117737609Y-73333360D01*
X117883476Y-73368380D01*
X117883482Y-73368381D01*
X117888289Y-73369535D01*
X118125000Y-73388165D01*
X118361711Y-73369535D01*
X118366518Y-73368381D01*
X118366524Y-73368380D01*
X118512391Y-73333360D01*
X118592594Y-73314105D01*
X118597167Y-73312211D01*
X118807389Y-73225135D01*
X118807393Y-73225133D01*
X118811963Y-73223240D01*
X118859512Y-73194102D01*
X119010202Y-73101759D01*
X119010208Y-73101755D01*
X119014416Y-73099176D01*
X119194969Y-72944969D01*
X119349176Y-72764416D01*
X119351755Y-72760208D01*
X119351759Y-72760202D01*
X119470654Y-72566183D01*
X119473240Y-72561963D01*
X119543361Y-72392676D01*
X119562211Y-72347167D01*
X119562212Y-72347165D01*
X119564105Y-72342594D01*
X119583360Y-72262391D01*
X119618380Y-72116524D01*
X119618381Y-72116518D01*
X119619535Y-72111711D01*
X119638165Y-71875000D01*
X119619535Y-71638289D01*
X119564105Y-71407406D01*
X119473240Y-71188037D01*
X119411998Y-71088099D01*
X119351759Y-70989798D01*
X119351755Y-70989792D01*
X119349176Y-70985584D01*
X119194969Y-70805031D01*
X119191205Y-70801816D01*
X119106898Y-70729811D01*
X119068089Y-70670360D01*
X119067583Y-70599366D01*
X119105539Y-70539367D01*
X119169908Y-70509414D01*
X119188729Y-70508000D01*
X122356231Y-70508000D01*
X122424352Y-70528002D01*
X122470845Y-70581658D01*
X122480949Y-70651932D01*
X122451455Y-70716512D01*
X122428501Y-70737213D01*
X122374735Y-70774860D01*
X122374729Y-70774865D01*
X122370219Y-70778023D01*
X122213023Y-70935219D01*
X122209866Y-70939727D01*
X122209864Y-70939730D01*
X122088669Y-71112815D01*
X122085512Y-71117324D01*
X122083189Y-71122306D01*
X122083186Y-71122311D01*
X122050405Y-71192611D01*
X121991560Y-71318804D01*
X121934022Y-71533537D01*
X121914647Y-71755000D01*
X121934022Y-71976463D01*
X121991560Y-72191196D01*
X121993882Y-72196177D01*
X121993883Y-72196178D01*
X122083186Y-72387689D01*
X122083189Y-72387694D01*
X122085512Y-72392676D01*
X122088668Y-72397183D01*
X122088669Y-72397185D01*
X122207003Y-72566183D01*
X122213023Y-72574781D01*
X122370219Y-72731977D01*
X122374727Y-72735134D01*
X122374730Y-72735136D01*
X122421915Y-72768175D01*
X122552323Y-72859488D01*
X122557305Y-72861811D01*
X122557310Y-72861814D01*
X122662965Y-72911081D01*
X122716250Y-72957998D01*
X122735711Y-73026275D01*
X122715169Y-73094235D01*
X122662965Y-73139471D01*
X122557559Y-73188623D01*
X122548068Y-73194103D01*
X122504235Y-73224794D01*
X122495860Y-73235271D01*
X122502928Y-73248718D01*
X123177188Y-73922978D01*
X123191132Y-73930592D01*
X123192965Y-73930461D01*
X123199580Y-73926210D01*
X123877793Y-73247997D01*
X123884223Y-73236223D01*
X123874926Y-73224207D01*
X123831931Y-73194102D01*
X123822445Y-73188624D01*
X123717035Y-73139471D01*
X123663750Y-73092554D01*
X123644289Y-73024277D01*
X123664831Y-72956317D01*
X123717035Y-72911081D01*
X123822690Y-72861814D01*
X123822695Y-72861811D01*
X123827677Y-72859488D01*
X123958085Y-72768175D01*
X124005270Y-72735136D01*
X124005273Y-72735134D01*
X124009781Y-72731977D01*
X124166977Y-72574781D01*
X124172998Y-72566183D01*
X124291331Y-72397185D01*
X124291332Y-72397183D01*
X124294488Y-72392676D01*
X124296811Y-72387694D01*
X124296814Y-72387689D01*
X124386117Y-72196178D01*
X124386118Y-72196177D01*
X124388440Y-72191196D01*
X124445978Y-71976463D01*
X124465353Y-71755000D01*
X124445978Y-71533537D01*
X124388440Y-71318804D01*
X124329595Y-71192611D01*
X124296814Y-71122311D01*
X124296811Y-71122306D01*
X124294488Y-71117324D01*
X124291331Y-71112815D01*
X124170136Y-70939730D01*
X124170134Y-70939727D01*
X124166977Y-70935219D01*
X124009781Y-70778023D01*
X124005271Y-70774865D01*
X124005265Y-70774860D01*
X123951499Y-70737213D01*
X123907170Y-70681756D01*
X123899861Y-70611137D01*
X123931891Y-70547776D01*
X123993093Y-70511791D01*
X124023769Y-70508000D01*
X137596231Y-70508000D01*
X137664352Y-70528002D01*
X137710845Y-70581658D01*
X137720949Y-70651932D01*
X137691455Y-70716512D01*
X137668501Y-70737213D01*
X137614735Y-70774860D01*
X137614729Y-70774865D01*
X137610219Y-70778023D01*
X137453023Y-70935219D01*
X137449866Y-70939727D01*
X137449864Y-70939730D01*
X137328669Y-71112815D01*
X137325512Y-71117324D01*
X137323189Y-71122306D01*
X137323186Y-71122311D01*
X137290405Y-71192611D01*
X137231560Y-71318804D01*
X137174022Y-71533537D01*
X137154647Y-71755000D01*
X137174022Y-71976463D01*
X137231560Y-72191196D01*
X137233882Y-72196177D01*
X137233883Y-72196178D01*
X137323186Y-72387689D01*
X137323189Y-72387694D01*
X137325512Y-72392676D01*
X137328668Y-72397183D01*
X137328669Y-72397185D01*
X137447003Y-72566183D01*
X137453023Y-72574781D01*
X137610219Y-72731977D01*
X137614727Y-72735134D01*
X137614730Y-72735136D01*
X137661915Y-72768175D01*
X137792323Y-72859488D01*
X137797305Y-72861811D01*
X137797310Y-72861814D01*
X137902373Y-72910805D01*
X137955658Y-72957722D01*
X137975119Y-73025999D01*
X137954577Y-73093959D01*
X137902373Y-73139195D01*
X137797311Y-73188186D01*
X137797306Y-73188189D01*
X137792324Y-73190512D01*
X137787817Y-73193668D01*
X137787815Y-73193669D01*
X137614730Y-73314864D01*
X137614727Y-73314866D01*
X137610219Y-73318023D01*
X137453023Y-73475219D01*
X137449866Y-73479727D01*
X137449864Y-73479730D01*
X137328669Y-73652815D01*
X137325512Y-73657324D01*
X137323189Y-73662306D01*
X137323186Y-73662311D01*
X137244358Y-73831358D01*
X137231560Y-73858804D01*
X137174022Y-74073537D01*
X137154647Y-74295000D01*
X137174022Y-74516463D01*
X137231560Y-74731196D01*
X137233882Y-74736177D01*
X137233883Y-74736178D01*
X137323186Y-74927689D01*
X137323189Y-74927694D01*
X137325512Y-74932676D01*
X137328668Y-74937183D01*
X137328669Y-74937185D01*
X137372653Y-75000000D01*
X137453023Y-75114781D01*
X137610219Y-75271977D01*
X137614727Y-75275134D01*
X137614730Y-75275136D01*
X137685885Y-75324959D01*
X137792323Y-75399488D01*
X137797305Y-75401811D01*
X137797310Y-75401814D01*
X137902373Y-75450805D01*
X137955658Y-75497722D01*
X137975119Y-75565999D01*
X137954577Y-75633959D01*
X137902373Y-75679195D01*
X137797311Y-75728186D01*
X137797306Y-75728189D01*
X137792324Y-75730512D01*
X137787817Y-75733668D01*
X137787815Y-75733669D01*
X137614730Y-75854864D01*
X137614727Y-75854866D01*
X137610219Y-75858023D01*
X137453023Y-76015219D01*
X137449866Y-76019727D01*
X137449864Y-76019730D01*
X137349363Y-76163261D01*
X137325512Y-76197324D01*
X137323189Y-76202306D01*
X137323186Y-76202311D01*
X137271562Y-76313019D01*
X137231560Y-76398804D01*
X137174022Y-76613537D01*
X137154647Y-76835000D01*
X137174022Y-77056463D01*
X137231560Y-77271196D01*
X137233882Y-77276177D01*
X137233883Y-77276178D01*
X137323186Y-77467689D01*
X137323189Y-77467694D01*
X137325512Y-77472676D01*
X137453023Y-77654781D01*
X137610219Y-77811977D01*
X137614727Y-77815134D01*
X137614730Y-77815136D01*
X137685885Y-77864959D01*
X137792323Y-77939488D01*
X137797305Y-77941811D01*
X137797310Y-77941814D01*
X137902373Y-77990805D01*
X137955658Y-78037722D01*
X137975119Y-78105999D01*
X137954577Y-78173959D01*
X137902373Y-78219195D01*
X137797311Y-78268186D01*
X137797306Y-78268189D01*
X137792324Y-78270512D01*
X137787817Y-78273668D01*
X137787815Y-78273669D01*
X137614730Y-78394864D01*
X137614727Y-78394866D01*
X137610219Y-78398023D01*
X137453023Y-78555219D01*
X137325512Y-78737324D01*
X137323189Y-78742306D01*
X137323186Y-78742311D01*
X137239826Y-78921078D01*
X137231560Y-78938804D01*
X137174022Y-79153537D01*
X137154647Y-79375000D01*
X137174022Y-79596463D01*
X137231560Y-79811196D01*
X137233882Y-79816177D01*
X137233883Y-79816178D01*
X137323186Y-80007689D01*
X137323189Y-80007694D01*
X137325512Y-80012676D01*
X137328668Y-80017183D01*
X137328669Y-80017185D01*
X137449687Y-80190016D01*
X137453023Y-80194781D01*
X137610219Y-80351977D01*
X137614727Y-80355134D01*
X137614730Y-80355136D01*
X137685885Y-80404959D01*
X137792323Y-80479488D01*
X137797305Y-80481811D01*
X137797310Y-80481814D01*
X137902373Y-80530805D01*
X137955658Y-80577722D01*
X137975119Y-80645999D01*
X137954577Y-80713959D01*
X137902373Y-80759195D01*
X137797311Y-80808186D01*
X137797306Y-80808189D01*
X137792324Y-80810512D01*
X137787817Y-80813668D01*
X137787815Y-80813669D01*
X137614730Y-80934864D01*
X137614727Y-80934866D01*
X137610219Y-80938023D01*
X137453023Y-81095219D01*
X137325512Y-81277324D01*
X137323189Y-81282306D01*
X137323186Y-81282311D01*
X137238099Y-81464781D01*
X137231560Y-81478804D01*
X137174022Y-81693537D01*
X137154647Y-81915000D01*
X137174022Y-82136463D01*
X137231560Y-82351196D01*
X137233882Y-82356177D01*
X137233883Y-82356178D01*
X137323186Y-82547689D01*
X137323189Y-82547694D01*
X137325512Y-82552676D01*
X137453023Y-82734781D01*
X137610219Y-82891977D01*
X137614727Y-82895134D01*
X137614730Y-82895136D01*
X137685885Y-82944959D01*
X137792323Y-83019488D01*
X137797305Y-83021811D01*
X137797310Y-83021814D01*
X137902373Y-83070805D01*
X137955658Y-83117722D01*
X137975119Y-83185999D01*
X137954577Y-83253959D01*
X137902373Y-83299195D01*
X137797311Y-83348186D01*
X137797306Y-83348189D01*
X137792324Y-83350512D01*
X137787817Y-83353668D01*
X137787815Y-83353669D01*
X137614730Y-83474864D01*
X137614727Y-83474866D01*
X137610219Y-83478023D01*
X137453023Y-83635219D01*
X137325512Y-83817324D01*
X137323189Y-83822306D01*
X137323186Y-83822311D01*
X137238099Y-84004781D01*
X137231560Y-84018804D01*
X137174022Y-84233537D01*
X137154647Y-84455000D01*
X137174022Y-84676463D01*
X137231560Y-84891196D01*
X137233882Y-84896177D01*
X137233883Y-84896178D01*
X137323186Y-85087689D01*
X137323189Y-85087694D01*
X137325512Y-85092676D01*
X137453023Y-85274781D01*
X137610219Y-85431977D01*
X137614727Y-85435134D01*
X137614730Y-85435136D01*
X137685885Y-85484959D01*
X137792323Y-85559488D01*
X137797305Y-85561811D01*
X137797310Y-85561814D01*
X137902373Y-85610805D01*
X137955658Y-85657722D01*
X137975119Y-85725999D01*
X137954577Y-85793959D01*
X137902373Y-85839195D01*
X137797311Y-85888186D01*
X137797306Y-85888189D01*
X137792324Y-85890512D01*
X137787817Y-85893668D01*
X137787815Y-85893669D01*
X137614730Y-86014864D01*
X137614727Y-86014866D01*
X137610219Y-86018023D01*
X137453023Y-86175219D01*
X137325512Y-86357324D01*
X137323189Y-86362306D01*
X137323186Y-86362311D01*
X137238099Y-86544781D01*
X137231560Y-86558804D01*
X137174022Y-86773537D01*
X137154647Y-86995000D01*
X137174022Y-87216463D01*
X137231560Y-87431196D01*
X137233882Y-87436177D01*
X137233883Y-87436178D01*
X137323186Y-87627689D01*
X137323189Y-87627694D01*
X137325512Y-87632676D01*
X137453023Y-87814781D01*
X137610219Y-87971977D01*
X137614727Y-87975134D01*
X137614730Y-87975136D01*
X137685885Y-88024959D01*
X137792323Y-88099488D01*
X137797305Y-88101811D01*
X137797310Y-88101814D01*
X137902373Y-88150805D01*
X137955658Y-88197722D01*
X137975119Y-88265999D01*
X137954577Y-88333959D01*
X137902373Y-88379195D01*
X137797311Y-88428186D01*
X137797306Y-88428189D01*
X137792324Y-88430512D01*
X137787817Y-88433668D01*
X137787815Y-88433669D01*
X137614730Y-88554864D01*
X137614727Y-88554866D01*
X137610219Y-88558023D01*
X137453023Y-88715219D01*
X137449866Y-88719727D01*
X137449864Y-88719730D01*
X137328669Y-88892815D01*
X137325512Y-88897324D01*
X137323189Y-88902306D01*
X137323186Y-88902311D01*
X137254327Y-89049980D01*
X137231560Y-89098804D01*
X137174022Y-89313537D01*
X137154647Y-89535000D01*
X137174022Y-89756463D01*
X137231560Y-89971196D01*
X137233882Y-89976177D01*
X137233883Y-89976178D01*
X137323186Y-90167689D01*
X137323189Y-90167694D01*
X137325512Y-90172676D01*
X137328668Y-90177183D01*
X137328669Y-90177185D01*
X137365107Y-90229223D01*
X137453023Y-90354781D01*
X137610219Y-90511977D01*
X137614727Y-90515134D01*
X137614730Y-90515136D01*
X137742771Y-90604791D01*
X137787099Y-90660248D01*
X137796500Y-90708004D01*
X137796500Y-92740500D01*
X137776498Y-92808621D01*
X137722842Y-92855114D01*
X137670500Y-92866500D01*
X123208200Y-92866500D01*
X123140079Y-92846498D01*
X123120853Y-92830157D01*
X123120580Y-92830460D01*
X123115668Y-92826037D01*
X123111253Y-92821134D01*
X122956752Y-92708882D01*
X122950724Y-92706198D01*
X122950722Y-92706197D01*
X122788319Y-92633891D01*
X122788318Y-92633891D01*
X122782288Y-92631206D01*
X122688888Y-92611353D01*
X122601944Y-92592872D01*
X122601939Y-92592872D01*
X122595487Y-92591500D01*
X122404513Y-92591500D01*
X122398061Y-92592872D01*
X122398056Y-92592872D01*
X122311113Y-92611353D01*
X122217712Y-92631206D01*
X122211682Y-92633891D01*
X122211681Y-92633891D01*
X122049278Y-92706197D01*
X122049276Y-92706198D01*
X122043248Y-92708882D01*
X121888747Y-92821134D01*
X121760960Y-92963056D01*
X121665473Y-93128444D01*
X121606458Y-93310072D01*
X121605768Y-93316633D01*
X121605768Y-93316635D01*
X121588855Y-93477551D01*
X121586496Y-93500000D01*
X121606458Y-93689928D01*
X121665473Y-93871556D01*
X121668776Y-93877278D01*
X121668777Y-93877279D01*
X121685947Y-93907018D01*
X121760960Y-94036944D01*
X121765378Y-94041851D01*
X121765379Y-94041852D01*
X121851905Y-94137949D01*
X121888747Y-94178866D01*
X122043248Y-94291118D01*
X122049276Y-94293802D01*
X122049278Y-94293803D01*
X122204761Y-94363028D01*
X122217712Y-94368794D01*
X122311113Y-94388647D01*
X122398056Y-94407128D01*
X122398061Y-94407128D01*
X122404513Y-94408500D01*
X122595487Y-94408500D01*
X122601939Y-94407128D01*
X122601944Y-94407128D01*
X122688887Y-94388647D01*
X122782288Y-94368794D01*
X122795239Y-94363028D01*
X122950722Y-94293803D01*
X122950724Y-94293802D01*
X122956752Y-94291118D01*
X123111253Y-94178866D01*
X123115668Y-94173963D01*
X123120580Y-94169540D01*
X123121705Y-94170789D01*
X123175014Y-94137949D01*
X123208200Y-94133500D01*
X137921233Y-94133500D01*
X137932416Y-94134027D01*
X137939909Y-94135702D01*
X137947835Y-94135453D01*
X137947836Y-94135453D01*
X138007986Y-94133562D01*
X138011945Y-94133500D01*
X138039856Y-94133500D01*
X138043791Y-94133003D01*
X138043856Y-94132995D01*
X138055693Y-94132062D01*
X138087951Y-94131048D01*
X138091970Y-94130922D01*
X138099889Y-94130673D01*
X138119343Y-94125021D01*
X138138700Y-94121013D01*
X138150930Y-94119468D01*
X138150931Y-94119468D01*
X138158797Y-94118474D01*
X138166168Y-94115555D01*
X138166170Y-94115555D01*
X138199912Y-94102196D01*
X138211142Y-94098351D01*
X138245983Y-94088229D01*
X138245984Y-94088229D01*
X138253593Y-94086018D01*
X138260412Y-94081985D01*
X138260417Y-94081983D01*
X138271028Y-94075707D01*
X138288776Y-94067012D01*
X138307617Y-94059552D01*
X138327987Y-94044753D01*
X138343387Y-94033564D01*
X138353307Y-94027048D01*
X138380175Y-94011158D01*
X138391362Y-94004542D01*
X138396969Y-93998936D01*
X138405685Y-93990220D01*
X138420719Y-93977379D01*
X138430695Y-93970131D01*
X138430696Y-93970130D01*
X138437107Y-93965472D01*
X138465288Y-93931407D01*
X138473278Y-93922626D01*
X138822259Y-93573646D01*
X138830537Y-93566113D01*
X138837018Y-93562000D01*
X138883630Y-93512362D01*
X138886385Y-93509519D01*
X138903334Y-93492571D01*
X138906135Y-93489770D01*
X138908615Y-93486573D01*
X138916320Y-93477551D01*
X138941159Y-93451100D01*
X138946586Y-93445321D01*
X138950405Y-93438375D01*
X138950407Y-93438372D01*
X138956348Y-93427566D01*
X138967199Y-93411047D01*
X138974758Y-93401301D01*
X138979614Y-93395041D01*
X138982759Y-93387772D01*
X138982762Y-93387768D01*
X138997174Y-93354463D01*
X139002391Y-93343813D01*
X139023695Y-93305060D01*
X139028733Y-93285437D01*
X139035137Y-93266734D01*
X139040033Y-93255420D01*
X139040033Y-93255419D01*
X139043181Y-93248145D01*
X139044420Y-93240322D01*
X139044423Y-93240312D01*
X139050099Y-93204476D01*
X139052505Y-93192856D01*
X139061528Y-93157711D01*
X139061528Y-93157710D01*
X139063500Y-93150030D01*
X139063500Y-93129776D01*
X139065051Y-93110065D01*
X139066980Y-93097886D01*
X139068220Y-93090057D01*
X139064059Y-93046038D01*
X139063500Y-93034181D01*
X139063500Y-90708004D01*
X139083502Y-90639883D01*
X139117229Y-90604791D01*
X139245270Y-90515136D01*
X139245273Y-90515134D01*
X139249781Y-90511977D01*
X139276905Y-90484853D01*
X139339217Y-90450827D01*
X139410032Y-90455892D01*
X139466868Y-90498439D01*
X139491679Y-90564959D01*
X139492000Y-90573948D01*
X139492000Y-98176052D01*
X139471998Y-98244173D01*
X139418342Y-98290666D01*
X139348068Y-98300770D01*
X139283488Y-98271276D01*
X139276905Y-98265147D01*
X139189781Y-98178023D01*
X139185273Y-98174866D01*
X139185270Y-98174864D01*
X139109505Y-98121813D01*
X139007677Y-98050512D01*
X139002695Y-98048189D01*
X139002690Y-98048186D01*
X138811178Y-97958883D01*
X138811177Y-97958882D01*
X138806196Y-97956560D01*
X138800888Y-97955138D01*
X138800886Y-97955137D01*
X138735051Y-97937497D01*
X138591463Y-97899022D01*
X138370000Y-97879647D01*
X138148537Y-97899022D01*
X138004949Y-97937497D01*
X137939114Y-97955137D01*
X137939112Y-97955138D01*
X137933804Y-97956560D01*
X137928823Y-97958882D01*
X137928822Y-97958883D01*
X137737311Y-98048186D01*
X137737306Y-98048189D01*
X137732324Y-98050512D01*
X137727817Y-98053668D01*
X137727815Y-98053669D01*
X137554730Y-98174864D01*
X137554727Y-98174866D01*
X137550219Y-98178023D01*
X137393023Y-98335219D01*
X137389866Y-98339727D01*
X137389864Y-98339730D01*
X137268669Y-98512815D01*
X137265512Y-98517324D01*
X137263189Y-98522306D01*
X137263186Y-98522311D01*
X137214195Y-98627373D01*
X137167277Y-98680658D01*
X137099000Y-98700119D01*
X137031040Y-98679577D01*
X136985805Y-98627373D01*
X136936814Y-98522311D01*
X136936811Y-98522306D01*
X136934488Y-98517324D01*
X136931331Y-98512815D01*
X136810136Y-98339730D01*
X136810134Y-98339727D01*
X136806977Y-98335219D01*
X136649781Y-98178023D01*
X136645273Y-98174866D01*
X136645270Y-98174864D01*
X136569505Y-98121813D01*
X136467677Y-98050512D01*
X136462695Y-98048189D01*
X136462690Y-98048186D01*
X136271178Y-97958883D01*
X136271177Y-97958882D01*
X136266196Y-97956560D01*
X136260888Y-97955138D01*
X136260886Y-97955137D01*
X136195051Y-97937497D01*
X136051463Y-97899022D01*
X135830000Y-97879647D01*
X135608537Y-97899022D01*
X135464949Y-97937497D01*
X135399114Y-97955137D01*
X135399112Y-97955138D01*
X135393804Y-97956560D01*
X135388823Y-97958882D01*
X135388822Y-97958883D01*
X135197311Y-98048186D01*
X135197306Y-98048189D01*
X135192324Y-98050512D01*
X135187817Y-98053668D01*
X135187815Y-98053669D01*
X135014730Y-98174864D01*
X135014727Y-98174866D01*
X135010219Y-98178023D01*
X134853023Y-98335219D01*
X134849866Y-98339727D01*
X134849864Y-98339730D01*
X134728669Y-98512815D01*
X134725512Y-98517324D01*
X134723189Y-98522306D01*
X134723186Y-98522311D01*
X134674195Y-98627373D01*
X134627277Y-98680658D01*
X134559000Y-98700119D01*
X134491040Y-98679577D01*
X134445805Y-98627373D01*
X134396814Y-98522311D01*
X134396811Y-98522306D01*
X134394488Y-98517324D01*
X134391331Y-98512815D01*
X134270136Y-98339730D01*
X134270134Y-98339727D01*
X134266977Y-98335219D01*
X134109781Y-98178023D01*
X134105273Y-98174866D01*
X134105270Y-98174864D01*
X134029505Y-98121813D01*
X133927677Y-98050512D01*
X133922695Y-98048189D01*
X133922690Y-98048186D01*
X133731178Y-97958883D01*
X133731177Y-97958882D01*
X133726196Y-97956560D01*
X133720888Y-97955138D01*
X133720886Y-97955137D01*
X133655051Y-97937497D01*
X133511463Y-97899022D01*
X133290000Y-97879647D01*
X133068537Y-97899022D01*
X132924949Y-97937497D01*
X132859114Y-97955137D01*
X132859112Y-97955138D01*
X132853804Y-97956560D01*
X132848823Y-97958882D01*
X132848822Y-97958883D01*
X132657311Y-98048186D01*
X132657306Y-98048189D01*
X132652324Y-98050512D01*
X132647817Y-98053668D01*
X132647815Y-98053669D01*
X132474730Y-98174864D01*
X132474727Y-98174866D01*
X132470219Y-98178023D01*
X132313023Y-98335219D01*
X132309866Y-98339727D01*
X132309864Y-98339730D01*
X132188669Y-98512815D01*
X132185512Y-98517324D01*
X132183189Y-98522306D01*
X132183186Y-98522311D01*
X132134195Y-98627373D01*
X132087277Y-98680658D01*
X132019000Y-98700119D01*
X131951040Y-98679577D01*
X131905805Y-98627373D01*
X131856814Y-98522311D01*
X131856811Y-98522306D01*
X131854488Y-98517324D01*
X131851331Y-98512815D01*
X131730136Y-98339730D01*
X131730134Y-98339727D01*
X131726977Y-98335219D01*
X131569781Y-98178023D01*
X131565273Y-98174866D01*
X131565270Y-98174864D01*
X131489505Y-98121813D01*
X131387677Y-98050512D01*
X131382695Y-98048189D01*
X131382690Y-98048186D01*
X131191178Y-97958883D01*
X131191177Y-97958882D01*
X131186196Y-97956560D01*
X131180888Y-97955138D01*
X131180886Y-97955137D01*
X131115051Y-97937497D01*
X130971463Y-97899022D01*
X130750000Y-97879647D01*
X130528537Y-97899022D01*
X130384949Y-97937497D01*
X130319114Y-97955137D01*
X130319112Y-97955138D01*
X130313804Y-97956560D01*
X130308823Y-97958882D01*
X130308822Y-97958883D01*
X130117311Y-98048186D01*
X130117306Y-98048189D01*
X130112324Y-98050512D01*
X130107817Y-98053668D01*
X130107815Y-98053669D01*
X129934730Y-98174864D01*
X129934727Y-98174866D01*
X129930219Y-98178023D01*
X129773023Y-98335219D01*
X129769866Y-98339727D01*
X129769864Y-98339730D01*
X129648669Y-98512815D01*
X129645512Y-98517324D01*
X129643189Y-98522306D01*
X129643186Y-98522311D01*
X129594195Y-98627373D01*
X129547277Y-98680658D01*
X129479000Y-98700119D01*
X129411040Y-98679577D01*
X129365805Y-98627373D01*
X129316814Y-98522311D01*
X129316811Y-98522306D01*
X129314488Y-98517324D01*
X129311331Y-98512815D01*
X129190136Y-98339730D01*
X129190134Y-98339727D01*
X129186977Y-98335219D01*
X129029781Y-98178023D01*
X129025273Y-98174866D01*
X129025270Y-98174864D01*
X128949505Y-98121813D01*
X128847677Y-98050512D01*
X128842695Y-98048189D01*
X128842690Y-98048186D01*
X128651178Y-97958883D01*
X128651177Y-97958882D01*
X128646196Y-97956560D01*
X128640888Y-97955138D01*
X128640886Y-97955137D01*
X128575051Y-97937497D01*
X128431463Y-97899022D01*
X128210000Y-97879647D01*
X127988537Y-97899022D01*
X127844949Y-97937497D01*
X127779114Y-97955137D01*
X127779112Y-97955138D01*
X127773804Y-97956560D01*
X127768823Y-97958882D01*
X127768822Y-97958883D01*
X127577311Y-98048186D01*
X127577306Y-98048189D01*
X127572324Y-98050512D01*
X127567817Y-98053668D01*
X127567815Y-98053669D01*
X127394730Y-98174864D01*
X127394727Y-98174866D01*
X127390219Y-98178023D01*
X127233023Y-98335219D01*
X127229866Y-98339727D01*
X127229864Y-98339730D01*
X127108669Y-98512815D01*
X127105512Y-98517324D01*
X127103189Y-98522306D01*
X127103186Y-98522311D01*
X127054195Y-98627373D01*
X127007277Y-98680658D01*
X126939000Y-98700119D01*
X126871040Y-98679577D01*
X126825805Y-98627373D01*
X126776814Y-98522311D01*
X126776811Y-98522306D01*
X126774488Y-98517324D01*
X126771331Y-98512815D01*
X126650136Y-98339730D01*
X126650134Y-98339727D01*
X126646977Y-98335219D01*
X126489781Y-98178023D01*
X126485273Y-98174866D01*
X126485270Y-98174864D01*
X126409505Y-98121813D01*
X126307677Y-98050512D01*
X126302695Y-98048189D01*
X126302690Y-98048186D01*
X126111178Y-97958883D01*
X126111177Y-97958882D01*
X126106196Y-97956560D01*
X126100888Y-97955138D01*
X126100886Y-97955137D01*
X126035051Y-97937497D01*
X125891463Y-97899022D01*
X125670000Y-97879647D01*
X125448537Y-97899022D01*
X125304949Y-97937497D01*
X125239114Y-97955137D01*
X125239112Y-97955138D01*
X125233804Y-97956560D01*
X125228823Y-97958882D01*
X125228822Y-97958883D01*
X125037311Y-98048186D01*
X125037306Y-98048189D01*
X125032324Y-98050512D01*
X125027817Y-98053668D01*
X125027815Y-98053669D01*
X124854730Y-98174864D01*
X124854727Y-98174866D01*
X124850219Y-98178023D01*
X124693023Y-98335219D01*
X124689866Y-98339727D01*
X124689864Y-98339730D01*
X124568669Y-98512815D01*
X124565512Y-98517324D01*
X124563189Y-98522306D01*
X124563186Y-98522311D01*
X124513919Y-98627965D01*
X124467001Y-98681250D01*
X124398724Y-98700711D01*
X124330764Y-98680169D01*
X124285529Y-98627965D01*
X124236377Y-98522559D01*
X124230897Y-98513068D01*
X124200206Y-98469235D01*
X124189729Y-98460860D01*
X124176282Y-98467928D01*
X123502022Y-99142188D01*
X123494408Y-99156132D01*
X123494539Y-99157965D01*
X123498790Y-99164580D01*
X124177003Y-99842793D01*
X124188777Y-99849223D01*
X124200793Y-99839926D01*
X124230897Y-99796932D01*
X124236377Y-99787441D01*
X124285529Y-99682035D01*
X124332447Y-99628750D01*
X124400724Y-99609289D01*
X124468684Y-99629831D01*
X124513919Y-99682035D01*
X124563186Y-99787689D01*
X124563189Y-99787694D01*
X124565512Y-99792676D01*
X124568668Y-99797183D01*
X124568669Y-99797185D01*
X124680856Y-99957404D01*
X124693023Y-99974781D01*
X124850219Y-100131977D01*
X124854727Y-100135134D01*
X124854730Y-100135136D01*
X124930495Y-100188187D01*
X125032323Y-100259488D01*
X125037305Y-100261811D01*
X125037310Y-100261814D01*
X125227810Y-100350645D01*
X125233804Y-100353440D01*
X125239112Y-100354862D01*
X125239114Y-100354863D01*
X125304949Y-100372503D01*
X125448537Y-100410978D01*
X125670000Y-100430353D01*
X125891463Y-100410978D01*
X126035051Y-100372503D01*
X126100886Y-100354863D01*
X126100888Y-100354862D01*
X126106196Y-100353440D01*
X126112190Y-100350645D01*
X126302690Y-100261814D01*
X126302695Y-100261811D01*
X126307677Y-100259488D01*
X126409505Y-100188187D01*
X126485270Y-100135136D01*
X126485273Y-100135134D01*
X126489781Y-100131977D01*
X126646977Y-99974781D01*
X126659145Y-99957404D01*
X126771331Y-99797185D01*
X126771332Y-99797183D01*
X126774488Y-99792676D01*
X126776811Y-99787694D01*
X126776814Y-99787689D01*
X126825805Y-99682627D01*
X126872723Y-99629342D01*
X126941000Y-99609881D01*
X127008960Y-99630423D01*
X127054195Y-99682627D01*
X127103186Y-99787689D01*
X127103189Y-99787694D01*
X127105512Y-99792676D01*
X127108668Y-99797183D01*
X127108669Y-99797185D01*
X127220856Y-99957404D01*
X127233023Y-99974781D01*
X127390219Y-100131977D01*
X127394727Y-100135134D01*
X127394730Y-100135136D01*
X127470495Y-100188187D01*
X127572323Y-100259488D01*
X127577305Y-100261811D01*
X127577310Y-100261814D01*
X127767810Y-100350645D01*
X127773804Y-100353440D01*
X127779112Y-100354862D01*
X127779114Y-100354863D01*
X127844949Y-100372503D01*
X127988537Y-100410978D01*
X128210000Y-100430353D01*
X128431463Y-100410978D01*
X128575051Y-100372503D01*
X128640886Y-100354863D01*
X128640888Y-100354862D01*
X128646196Y-100353440D01*
X128652190Y-100350645D01*
X128842690Y-100261814D01*
X128842695Y-100261811D01*
X128847677Y-100259488D01*
X128949505Y-100188187D01*
X129025270Y-100135136D01*
X129025273Y-100135134D01*
X129029781Y-100131977D01*
X129186977Y-99974781D01*
X129199145Y-99957404D01*
X129311331Y-99797185D01*
X129311332Y-99797183D01*
X129314488Y-99792676D01*
X129316811Y-99787694D01*
X129316814Y-99787689D01*
X129365805Y-99682627D01*
X129412723Y-99629342D01*
X129481000Y-99609881D01*
X129548960Y-99630423D01*
X129594195Y-99682627D01*
X129643186Y-99787689D01*
X129643189Y-99787694D01*
X129645512Y-99792676D01*
X129648668Y-99797183D01*
X129648669Y-99797185D01*
X129760856Y-99957404D01*
X129773023Y-99974781D01*
X129930219Y-100131977D01*
X129934727Y-100135134D01*
X129934730Y-100135136D01*
X130010495Y-100188187D01*
X130112323Y-100259488D01*
X130117305Y-100261811D01*
X130117310Y-100261814D01*
X130307810Y-100350645D01*
X130313804Y-100353440D01*
X130319112Y-100354862D01*
X130319114Y-100354863D01*
X130384949Y-100372503D01*
X130528537Y-100410978D01*
X130750000Y-100430353D01*
X130971463Y-100410978D01*
X131115051Y-100372503D01*
X131180886Y-100354863D01*
X131180888Y-100354862D01*
X131186196Y-100353440D01*
X131192190Y-100350645D01*
X131382690Y-100261814D01*
X131382695Y-100261811D01*
X131387677Y-100259488D01*
X131489505Y-100188187D01*
X131565270Y-100135136D01*
X131565273Y-100135134D01*
X131569781Y-100131977D01*
X131726977Y-99974781D01*
X131739145Y-99957404D01*
X131851331Y-99797185D01*
X131851332Y-99797183D01*
X131854488Y-99792676D01*
X131856811Y-99787694D01*
X131856814Y-99787689D01*
X131905805Y-99682627D01*
X131952723Y-99629342D01*
X132021000Y-99609881D01*
X132088960Y-99630423D01*
X132134195Y-99682627D01*
X132183186Y-99787689D01*
X132183189Y-99787694D01*
X132185512Y-99792676D01*
X132188668Y-99797183D01*
X132188669Y-99797185D01*
X132300856Y-99957404D01*
X132313023Y-99974781D01*
X132470219Y-100131977D01*
X132474727Y-100135134D01*
X132474730Y-100135136D01*
X132550495Y-100188187D01*
X132652323Y-100259488D01*
X132657305Y-100261811D01*
X132657310Y-100261814D01*
X132847810Y-100350645D01*
X132853804Y-100353440D01*
X132859112Y-100354862D01*
X132859114Y-100354863D01*
X132924949Y-100372503D01*
X133068537Y-100410978D01*
X133290000Y-100430353D01*
X133511463Y-100410978D01*
X133655051Y-100372503D01*
X133720886Y-100354863D01*
X133720888Y-100354862D01*
X133726196Y-100353440D01*
X133732190Y-100350645D01*
X133922690Y-100261814D01*
X133922695Y-100261811D01*
X133927677Y-100259488D01*
X134029505Y-100188187D01*
X134105270Y-100135136D01*
X134105273Y-100135134D01*
X134109781Y-100131977D01*
X134266977Y-99974781D01*
X134279145Y-99957404D01*
X134391331Y-99797185D01*
X134391332Y-99797183D01*
X134394488Y-99792676D01*
X134396811Y-99787694D01*
X134396814Y-99787689D01*
X134445805Y-99682627D01*
X134492723Y-99629342D01*
X134561000Y-99609881D01*
X134628960Y-99630423D01*
X134674195Y-99682627D01*
X134723186Y-99787689D01*
X134723189Y-99787694D01*
X134725512Y-99792676D01*
X134728668Y-99797183D01*
X134728669Y-99797185D01*
X134840856Y-99957404D01*
X134853023Y-99974781D01*
X135010219Y-100131977D01*
X135014727Y-100135134D01*
X135014730Y-100135136D01*
X135090495Y-100188187D01*
X135192323Y-100259488D01*
X135197305Y-100261811D01*
X135197310Y-100261814D01*
X135387810Y-100350645D01*
X135393804Y-100353440D01*
X135399112Y-100354862D01*
X135399114Y-100354863D01*
X135464949Y-100372503D01*
X135608537Y-100410978D01*
X135830000Y-100430353D01*
X136051463Y-100410978D01*
X136195051Y-100372503D01*
X136260886Y-100354863D01*
X136260888Y-100354862D01*
X136266196Y-100353440D01*
X136272190Y-100350645D01*
X136462690Y-100261814D01*
X136462695Y-100261811D01*
X136467677Y-100259488D01*
X136569505Y-100188187D01*
X136645270Y-100135136D01*
X136645273Y-100135134D01*
X136649781Y-100131977D01*
X136806977Y-99974781D01*
X136819145Y-99957404D01*
X136931331Y-99797185D01*
X136931332Y-99797183D01*
X136934488Y-99792676D01*
X136936811Y-99787694D01*
X136936814Y-99787689D01*
X136985805Y-99682627D01*
X137032723Y-99629342D01*
X137101000Y-99609881D01*
X137168960Y-99630423D01*
X137214195Y-99682627D01*
X137263186Y-99787689D01*
X137263189Y-99787694D01*
X137265512Y-99792676D01*
X137268668Y-99797183D01*
X137268669Y-99797185D01*
X137380856Y-99957404D01*
X137393023Y-99974781D01*
X137550219Y-100131977D01*
X137554727Y-100135134D01*
X137554730Y-100135136D01*
X137630495Y-100188187D01*
X137732323Y-100259488D01*
X137737305Y-100261811D01*
X137737310Y-100261814D01*
X137927810Y-100350645D01*
X137933804Y-100353440D01*
X137939112Y-100354862D01*
X137939114Y-100354863D01*
X138004949Y-100372503D01*
X138148537Y-100410978D01*
X138370000Y-100430353D01*
X138591463Y-100410978D01*
X138735051Y-100372503D01*
X138800886Y-100354863D01*
X138800888Y-100354862D01*
X138806196Y-100353440D01*
X138812190Y-100350645D01*
X139002690Y-100261814D01*
X139002695Y-100261811D01*
X139007677Y-100259488D01*
X139109505Y-100188187D01*
X139185270Y-100135136D01*
X139185273Y-100135134D01*
X139189781Y-100131977D01*
X139276905Y-100044853D01*
X139339217Y-100010827D01*
X139410032Y-100015892D01*
X139466868Y-100058439D01*
X139491679Y-100124959D01*
X139492000Y-100133948D01*
X139492000Y-116366000D01*
X139471998Y-116434121D01*
X139418342Y-116480614D01*
X139366000Y-116492000D01*
X100634000Y-116492000D01*
X100565879Y-116471998D01*
X100519386Y-116418342D01*
X100508000Y-116366000D01*
X100508000Y-114723777D01*
X114875777Y-114723777D01*
X114885074Y-114735793D01*
X114928069Y-114765898D01*
X114937555Y-114771376D01*
X115128993Y-114860645D01*
X115139285Y-114864391D01*
X115343309Y-114919059D01*
X115354104Y-114920962D01*
X115564525Y-114939372D01*
X115575475Y-114939372D01*
X115785896Y-114920962D01*
X115796691Y-114919059D01*
X116000715Y-114864391D01*
X116011007Y-114860645D01*
X116202445Y-114771376D01*
X116211931Y-114765898D01*
X116255764Y-114735207D01*
X116264139Y-114724729D01*
X116257071Y-114711281D01*
X115582812Y-114037022D01*
X115568868Y-114029408D01*
X115567035Y-114029539D01*
X115560420Y-114033790D01*
X114882207Y-114712003D01*
X114875777Y-114723777D01*
X100508000Y-114723777D01*
X100508000Y-113670475D01*
X114295628Y-113670475D01*
X114314038Y-113880896D01*
X114315941Y-113891691D01*
X114370609Y-114095715D01*
X114374355Y-114106007D01*
X114463623Y-114297441D01*
X114469103Y-114306932D01*
X114499794Y-114350765D01*
X114510271Y-114359140D01*
X114523718Y-114352072D01*
X115197978Y-113677812D01*
X115204356Y-113666132D01*
X115934408Y-113666132D01*
X115934539Y-113667965D01*
X115938790Y-113674580D01*
X116617003Y-114352793D01*
X116628777Y-114359223D01*
X116640793Y-114349926D01*
X116670897Y-114306932D01*
X116676377Y-114297441D01*
X116765645Y-114106007D01*
X116769391Y-114095715D01*
X116824059Y-113891691D01*
X116825962Y-113880896D01*
X116844372Y-113670475D01*
X116844372Y-113659525D01*
X116825962Y-113449104D01*
X116824059Y-113438309D01*
X116769391Y-113234285D01*
X116765645Y-113223993D01*
X116676377Y-113032559D01*
X116670897Y-113023068D01*
X116640206Y-112979235D01*
X116629729Y-112970860D01*
X116616282Y-112977928D01*
X115942022Y-113652188D01*
X115934408Y-113666132D01*
X115204356Y-113666132D01*
X115205592Y-113663868D01*
X115205461Y-113662035D01*
X115201210Y-113655420D01*
X114522997Y-112977207D01*
X114511223Y-112970777D01*
X114499207Y-112980074D01*
X114469103Y-113023068D01*
X114463623Y-113032559D01*
X114374355Y-113223993D01*
X114370609Y-113234285D01*
X114315941Y-113438309D01*
X114314038Y-113449104D01*
X114295628Y-113659525D01*
X114295628Y-113670475D01*
X100508000Y-113670475D01*
X100508000Y-110680000D01*
X106886502Y-110680000D01*
X106906457Y-110908087D01*
X106965716Y-111129243D01*
X106968039Y-111134224D01*
X106968039Y-111134225D01*
X107060151Y-111331762D01*
X107060154Y-111331767D01*
X107062477Y-111336749D01*
X107193802Y-111524300D01*
X107355700Y-111686198D01*
X107360208Y-111689355D01*
X107360211Y-111689357D01*
X107438389Y-111744098D01*
X107543251Y-111817523D01*
X107548233Y-111819846D01*
X107548238Y-111819849D01*
X107745775Y-111911961D01*
X107750757Y-111914284D01*
X107756065Y-111915706D01*
X107756067Y-111915707D01*
X107966598Y-111972119D01*
X107966600Y-111972119D01*
X107971913Y-111973543D01*
X108200000Y-111993498D01*
X108428087Y-111973543D01*
X108433400Y-111972119D01*
X108433402Y-111972119D01*
X108643933Y-111915707D01*
X108643935Y-111915706D01*
X108649243Y-111914284D01*
X108654225Y-111911961D01*
X108851762Y-111819849D01*
X108851767Y-111819846D01*
X108856749Y-111817523D01*
X108961611Y-111744098D01*
X109039789Y-111689357D01*
X109039792Y-111689355D01*
X109044300Y-111686198D01*
X109206198Y-111524300D01*
X109337523Y-111336749D01*
X109339846Y-111331767D01*
X109339849Y-111331762D01*
X109431961Y-111134225D01*
X109431961Y-111134224D01*
X109434284Y-111129243D01*
X109493543Y-110908087D01*
X109513498Y-110680000D01*
X110086502Y-110680000D01*
X110106457Y-110908087D01*
X110165716Y-111129243D01*
X110168039Y-111134224D01*
X110168039Y-111134225D01*
X110260151Y-111331762D01*
X110260154Y-111331767D01*
X110262477Y-111336749D01*
X110393802Y-111524300D01*
X110555700Y-111686198D01*
X110560208Y-111689355D01*
X110560211Y-111689357D01*
X110638389Y-111744098D01*
X110743251Y-111817523D01*
X110748233Y-111819846D01*
X110748238Y-111819849D01*
X110945775Y-111911961D01*
X110950757Y-111914284D01*
X110956065Y-111915706D01*
X110956067Y-111915707D01*
X111166598Y-111972119D01*
X111166600Y-111972119D01*
X111171913Y-111973543D01*
X111400000Y-111993498D01*
X111628087Y-111973543D01*
X111633400Y-111972119D01*
X111633402Y-111972119D01*
X111843933Y-111915707D01*
X111843935Y-111915706D01*
X111849243Y-111914284D01*
X111854225Y-111911961D01*
X112051762Y-111819849D01*
X112051767Y-111819846D01*
X112056749Y-111817523D01*
X112161611Y-111744098D01*
X112239789Y-111689357D01*
X112239792Y-111689355D01*
X112244300Y-111686198D01*
X112406198Y-111524300D01*
X112537523Y-111336749D01*
X112539846Y-111331767D01*
X112539849Y-111331762D01*
X112631961Y-111134225D01*
X112631961Y-111134224D01*
X112634284Y-111129243D01*
X112693543Y-110908087D01*
X112713498Y-110680000D01*
X112693543Y-110451913D01*
X112634284Y-110230757D01*
X112594232Y-110144864D01*
X112539849Y-110028238D01*
X112539846Y-110028233D01*
X112537523Y-110023251D01*
X112464098Y-109918389D01*
X112409357Y-109840211D01*
X112409355Y-109840208D01*
X112406198Y-109835700D01*
X112244300Y-109673802D01*
X112239792Y-109670645D01*
X112239789Y-109670643D01*
X112089109Y-109565136D01*
X112056749Y-109542477D01*
X112051767Y-109540154D01*
X112051762Y-109540151D01*
X111854225Y-109448039D01*
X111854224Y-109448039D01*
X111849243Y-109445716D01*
X111843935Y-109444294D01*
X111843933Y-109444293D01*
X111633402Y-109387881D01*
X111633400Y-109387881D01*
X111628087Y-109386457D01*
X111400000Y-109366502D01*
X111171913Y-109386457D01*
X111166600Y-109387881D01*
X111166598Y-109387881D01*
X110956067Y-109444293D01*
X110956065Y-109444294D01*
X110950757Y-109445716D01*
X110945776Y-109448039D01*
X110945775Y-109448039D01*
X110748238Y-109540151D01*
X110748233Y-109540154D01*
X110743251Y-109542477D01*
X110710891Y-109565136D01*
X110560211Y-109670643D01*
X110560208Y-109670645D01*
X110555700Y-109673802D01*
X110393802Y-109835700D01*
X110390645Y-109840208D01*
X110390643Y-109840211D01*
X110335902Y-109918389D01*
X110262477Y-110023251D01*
X110260154Y-110028233D01*
X110260151Y-110028238D01*
X110205768Y-110144864D01*
X110165716Y-110230757D01*
X110106457Y-110451913D01*
X110086502Y-110680000D01*
X109513498Y-110680000D01*
X109493543Y-110451913D01*
X109434284Y-110230757D01*
X109394232Y-110144864D01*
X109339849Y-110028238D01*
X109339846Y-110028233D01*
X109337523Y-110023251D01*
X109264098Y-109918389D01*
X109209357Y-109840211D01*
X109209355Y-109840208D01*
X109206198Y-109835700D01*
X109044300Y-109673802D01*
X109039792Y-109670645D01*
X109039789Y-109670643D01*
X108889109Y-109565136D01*
X108856749Y-109542477D01*
X108851767Y-109540154D01*
X108851762Y-109540151D01*
X108654225Y-109448039D01*
X108654224Y-109448039D01*
X108649243Y-109445716D01*
X108643935Y-109444294D01*
X108643933Y-109444293D01*
X108433402Y-109387881D01*
X108433400Y-109387881D01*
X108428087Y-109386457D01*
X108200000Y-109366502D01*
X107971913Y-109386457D01*
X107966600Y-109387881D01*
X107966598Y-109387881D01*
X107756067Y-109444293D01*
X107756065Y-109444294D01*
X107750757Y-109445716D01*
X107745776Y-109448039D01*
X107745775Y-109448039D01*
X107548238Y-109540151D01*
X107548233Y-109540154D01*
X107543251Y-109542477D01*
X107510891Y-109565136D01*
X107360211Y-109670643D01*
X107360208Y-109670645D01*
X107355700Y-109673802D01*
X107193802Y-109835700D01*
X107190645Y-109840208D01*
X107190643Y-109840211D01*
X107135902Y-109918389D01*
X107062477Y-110023251D01*
X107060154Y-110028233D01*
X107060151Y-110028238D01*
X107005768Y-110144864D01*
X106965716Y-110230757D01*
X106906457Y-110451913D01*
X106886502Y-110680000D01*
X100508000Y-110680000D01*
X100508000Y-100520000D01*
X106886502Y-100520000D01*
X106906457Y-100748087D01*
X106907881Y-100753400D01*
X106907881Y-100753402D01*
X106917031Y-100787548D01*
X106965716Y-100969243D01*
X106968039Y-100974224D01*
X106968039Y-100974225D01*
X107060151Y-101171762D01*
X107060154Y-101171767D01*
X107062477Y-101176749D01*
X107193802Y-101364300D01*
X107355700Y-101526198D01*
X107360208Y-101529355D01*
X107360211Y-101529357D01*
X107438389Y-101584098D01*
X107543251Y-101657523D01*
X107548233Y-101659846D01*
X107548238Y-101659849D01*
X107744765Y-101751490D01*
X107750757Y-101754284D01*
X107756065Y-101755706D01*
X107756067Y-101755707D01*
X107966598Y-101812119D01*
X107966600Y-101812119D01*
X107971913Y-101813543D01*
X108200000Y-101833498D01*
X108428087Y-101813543D01*
X108433400Y-101812119D01*
X108433402Y-101812119D01*
X108643933Y-101755707D01*
X108643935Y-101755706D01*
X108649243Y-101754284D01*
X108655235Y-101751490D01*
X108851762Y-101659849D01*
X108851767Y-101659846D01*
X108856749Y-101657523D01*
X108961611Y-101584098D01*
X109039789Y-101529357D01*
X109039792Y-101529355D01*
X109044300Y-101526198D01*
X109206198Y-101364300D01*
X109337523Y-101176749D01*
X109339846Y-101171767D01*
X109339849Y-101171762D01*
X109431961Y-100974225D01*
X109431961Y-100974224D01*
X109434284Y-100969243D01*
X109482970Y-100787548D01*
X109483245Y-100786522D01*
X110117273Y-100786522D01*
X110164764Y-100963761D01*
X110168510Y-100974053D01*
X110260586Y-101171511D01*
X110266069Y-101181007D01*
X110391028Y-101359467D01*
X110398084Y-101367875D01*
X110552125Y-101521916D01*
X110560533Y-101528972D01*
X110738993Y-101653931D01*
X110748489Y-101659414D01*
X110945947Y-101751490D01*
X110956239Y-101755236D01*
X111128503Y-101801394D01*
X111142599Y-101801058D01*
X111146000Y-101793116D01*
X111146000Y-101787967D01*
X111654000Y-101787967D01*
X111657973Y-101801498D01*
X111666522Y-101802727D01*
X111843761Y-101755236D01*
X111854053Y-101751490D01*
X112051511Y-101659414D01*
X112061007Y-101653931D01*
X112239467Y-101528972D01*
X112247875Y-101521916D01*
X112401916Y-101367875D01*
X112408972Y-101359467D01*
X112533931Y-101181007D01*
X112539414Y-101171511D01*
X112631490Y-100974053D01*
X112635236Y-100963761D01*
X112681394Y-100791497D01*
X112681058Y-100777401D01*
X112673116Y-100774000D01*
X111672115Y-100774000D01*
X111656876Y-100778475D01*
X111655671Y-100779865D01*
X111654000Y-100787548D01*
X111654000Y-101787967D01*
X111146000Y-101787967D01*
X111146000Y-100792115D01*
X111141525Y-100776876D01*
X111140135Y-100775671D01*
X111132452Y-100774000D01*
X110132033Y-100774000D01*
X110118502Y-100777973D01*
X110117273Y-100786522D01*
X109483245Y-100786522D01*
X109492119Y-100753402D01*
X109492119Y-100753400D01*
X109493543Y-100748087D01*
X109513498Y-100520000D01*
X109493543Y-100291913D01*
X109483244Y-100253478D01*
X109481911Y-100248503D01*
X110118606Y-100248503D01*
X110118942Y-100262599D01*
X110126884Y-100266000D01*
X111127885Y-100266000D01*
X111143124Y-100261525D01*
X111144329Y-100260135D01*
X111146000Y-100252452D01*
X111146000Y-100247885D01*
X111654000Y-100247885D01*
X111658475Y-100263124D01*
X111659865Y-100264329D01*
X111667548Y-100266000D01*
X112667967Y-100266000D01*
X112681498Y-100262027D01*
X112682727Y-100253478D01*
X112635236Y-100076239D01*
X112631490Y-100065947D01*
X112539414Y-99868489D01*
X112533931Y-99858993D01*
X112408972Y-99680533D01*
X112401916Y-99672125D01*
X112247875Y-99518084D01*
X112239467Y-99511028D01*
X112061007Y-99386069D01*
X112051511Y-99380586D01*
X111854053Y-99288510D01*
X111843761Y-99284764D01*
X111671497Y-99238606D01*
X111657401Y-99238942D01*
X111654000Y-99246884D01*
X111654000Y-100247885D01*
X111146000Y-100247885D01*
X111146000Y-99252033D01*
X111142027Y-99238502D01*
X111133478Y-99237273D01*
X110956239Y-99284764D01*
X110945947Y-99288510D01*
X110748489Y-99380586D01*
X110738993Y-99386069D01*
X110560533Y-99511028D01*
X110552125Y-99518084D01*
X110398084Y-99672125D01*
X110391028Y-99680533D01*
X110266069Y-99858993D01*
X110260586Y-99868489D01*
X110168510Y-100065947D01*
X110164764Y-100076239D01*
X110118606Y-100248503D01*
X109481911Y-100248503D01*
X109435707Y-100076067D01*
X109435706Y-100076065D01*
X109434284Y-100070757D01*
X109408700Y-100015892D01*
X109339849Y-99868238D01*
X109339846Y-99868233D01*
X109337523Y-99863251D01*
X109211194Y-99682835D01*
X109209357Y-99680211D01*
X109209355Y-99680208D01*
X109206198Y-99675700D01*
X109044300Y-99513802D01*
X109039792Y-99510645D01*
X109039789Y-99510643D01*
X108904609Y-99415989D01*
X108856749Y-99382477D01*
X108851767Y-99380154D01*
X108851762Y-99380151D01*
X108654225Y-99288039D01*
X108654224Y-99288039D01*
X108649243Y-99285716D01*
X108643935Y-99284294D01*
X108643933Y-99284293D01*
X108433402Y-99227881D01*
X108433400Y-99227881D01*
X108428087Y-99226457D01*
X108200000Y-99206502D01*
X107971913Y-99226457D01*
X107966600Y-99227881D01*
X107966598Y-99227881D01*
X107756067Y-99284293D01*
X107756065Y-99284294D01*
X107750757Y-99285716D01*
X107745776Y-99288039D01*
X107745775Y-99288039D01*
X107548238Y-99380151D01*
X107548233Y-99380154D01*
X107543251Y-99382477D01*
X107495391Y-99415989D01*
X107360211Y-99510643D01*
X107360208Y-99510645D01*
X107355700Y-99513802D01*
X107193802Y-99675700D01*
X107190645Y-99680208D01*
X107190643Y-99680211D01*
X107188806Y-99682835D01*
X107062477Y-99863251D01*
X107060154Y-99868233D01*
X107060151Y-99868238D01*
X106991300Y-100015892D01*
X106965716Y-100070757D01*
X106964294Y-100076065D01*
X106964293Y-100076067D01*
X106916756Y-100253478D01*
X106906457Y-100291913D01*
X106886502Y-100520000D01*
X100508000Y-100520000D01*
X100508000Y-89323777D01*
X100905777Y-89323777D01*
X100915074Y-89335793D01*
X100958069Y-89365898D01*
X100967555Y-89371376D01*
X101158993Y-89460645D01*
X101169285Y-89464391D01*
X101373309Y-89519059D01*
X101384104Y-89520962D01*
X101594525Y-89539372D01*
X101605475Y-89539372D01*
X101815896Y-89520962D01*
X101826691Y-89519059D01*
X102030715Y-89464391D01*
X102041007Y-89460645D01*
X102232445Y-89371376D01*
X102241931Y-89365898D01*
X102285764Y-89335207D01*
X102294139Y-89324729D01*
X102287071Y-89311281D01*
X101612812Y-88637022D01*
X101598868Y-88629408D01*
X101597035Y-88629539D01*
X101590420Y-88633790D01*
X100912207Y-89312003D01*
X100905777Y-89323777D01*
X100508000Y-89323777D01*
X100508000Y-89049980D01*
X100528002Y-88981859D01*
X100544905Y-88960885D01*
X101227978Y-88277812D01*
X101234356Y-88266132D01*
X101964408Y-88266132D01*
X101964539Y-88267965D01*
X101968790Y-88274580D01*
X102647003Y-88952793D01*
X102658777Y-88959223D01*
X102670793Y-88949926D01*
X102700897Y-88906932D01*
X102706377Y-88897441D01*
X102795645Y-88706007D01*
X102799391Y-88695715D01*
X102854059Y-88491691D01*
X102855962Y-88480896D01*
X102874372Y-88270475D01*
X102874372Y-88259525D01*
X102855962Y-88049104D01*
X102854059Y-88038309D01*
X102799391Y-87834285D01*
X102795645Y-87823993D01*
X102706377Y-87632559D01*
X102700897Y-87623068D01*
X102670206Y-87579235D01*
X102659729Y-87570860D01*
X102646282Y-87577928D01*
X101972022Y-88252188D01*
X101964408Y-88266132D01*
X101234356Y-88266132D01*
X101235592Y-88263868D01*
X101235461Y-88262035D01*
X101231210Y-88255420D01*
X100544905Y-87569115D01*
X100510879Y-87506803D01*
X100508000Y-87480020D01*
X100508000Y-86733948D01*
X100528002Y-86665827D01*
X100581658Y-86619334D01*
X100651932Y-86609230D01*
X100716512Y-86638724D01*
X100723095Y-86644853D01*
X100780219Y-86701977D01*
X100784727Y-86705134D01*
X100784730Y-86705136D01*
X100825878Y-86733948D01*
X100962323Y-86829488D01*
X100967305Y-86831811D01*
X100967310Y-86831814D01*
X101072965Y-86881081D01*
X101126250Y-86927998D01*
X101145711Y-86996275D01*
X101125169Y-87064235D01*
X101072965Y-87109471D01*
X100967559Y-87158623D01*
X100958068Y-87164103D01*
X100914235Y-87194794D01*
X100905860Y-87205271D01*
X100912928Y-87218718D01*
X101587188Y-87892978D01*
X101601132Y-87900592D01*
X101602965Y-87900461D01*
X101609580Y-87896210D01*
X102287793Y-87217997D01*
X102294223Y-87206223D01*
X102284926Y-87194207D01*
X102241931Y-87164102D01*
X102232445Y-87158624D01*
X102127035Y-87109471D01*
X102073750Y-87062554D01*
X102054289Y-86994277D01*
X102074831Y-86926317D01*
X102127035Y-86881081D01*
X102232690Y-86831814D01*
X102232695Y-86831811D01*
X102237677Y-86829488D01*
X102374122Y-86733948D01*
X102415270Y-86705136D01*
X102415273Y-86705134D01*
X102419781Y-86701977D01*
X102576977Y-86544781D01*
X102704488Y-86362676D01*
X102706811Y-86357694D01*
X102706814Y-86357689D01*
X102796117Y-86166178D01*
X102796118Y-86166177D01*
X102798440Y-86161196D01*
X102855978Y-85946463D01*
X102875353Y-85725000D01*
X102855978Y-85503537D01*
X102798440Y-85288804D01*
X102791901Y-85274781D01*
X102706814Y-85092311D01*
X102706811Y-85092306D01*
X102704488Y-85087324D01*
X102576977Y-84905219D01*
X102419781Y-84748023D01*
X102415273Y-84744866D01*
X102415270Y-84744864D01*
X102309758Y-84670984D01*
X102237677Y-84620512D01*
X102232695Y-84618189D01*
X102232690Y-84618186D01*
X102127627Y-84569195D01*
X102074342Y-84522278D01*
X102054881Y-84454001D01*
X102075423Y-84386041D01*
X102127627Y-84340805D01*
X102232690Y-84291814D01*
X102232695Y-84291811D01*
X102237677Y-84289488D01*
X102374122Y-84193948D01*
X102415270Y-84165136D01*
X102415273Y-84165134D01*
X102419781Y-84161977D01*
X102576977Y-84004781D01*
X102704488Y-83822676D01*
X102706811Y-83817694D01*
X102706814Y-83817689D01*
X102796117Y-83626178D01*
X102796118Y-83626177D01*
X102798440Y-83621196D01*
X102855978Y-83406463D01*
X102875353Y-83185000D01*
X102855978Y-82963537D01*
X102798440Y-82748804D01*
X102791901Y-82734781D01*
X102706814Y-82552311D01*
X102706811Y-82552306D01*
X102704488Y-82547324D01*
X102576977Y-82365219D01*
X102419781Y-82208023D01*
X102415273Y-82204866D01*
X102415270Y-82204864D01*
X102309758Y-82130984D01*
X102237677Y-82080512D01*
X102232695Y-82078189D01*
X102232690Y-82078186D01*
X102127627Y-82029195D01*
X102074342Y-81982278D01*
X102054881Y-81914001D01*
X102075423Y-81846041D01*
X102127627Y-81800805D01*
X102232690Y-81751814D01*
X102232695Y-81751811D01*
X102237677Y-81749488D01*
X102374122Y-81653948D01*
X102415270Y-81625136D01*
X102415273Y-81625134D01*
X102419781Y-81621977D01*
X102576977Y-81464781D01*
X102669791Y-81332229D01*
X102725248Y-81287901D01*
X102773004Y-81278500D01*
X102830406Y-81278500D01*
X102898527Y-81298502D01*
X102919501Y-81315405D01*
X115496343Y-93892247D01*
X115503887Y-93900537D01*
X115508000Y-93907018D01*
X115513777Y-93912443D01*
X115557667Y-93953658D01*
X115560509Y-93956413D01*
X115580230Y-93976134D01*
X115583425Y-93978612D01*
X115592447Y-93986318D01*
X115624679Y-94016586D01*
X115631628Y-94020406D01*
X115642432Y-94026346D01*
X115658956Y-94037199D01*
X115674959Y-94049613D01*
X115715543Y-94067176D01*
X115726173Y-94072383D01*
X115764940Y-94093695D01*
X115772617Y-94095666D01*
X115772622Y-94095668D01*
X115784558Y-94098732D01*
X115803266Y-94105137D01*
X115821855Y-94113181D01*
X115829680Y-94114420D01*
X115829682Y-94114421D01*
X115865519Y-94120097D01*
X115877140Y-94122504D01*
X115908959Y-94130673D01*
X115919970Y-94133500D01*
X115940231Y-94133500D01*
X115959940Y-94135051D01*
X115979943Y-94138219D01*
X115987835Y-94137473D01*
X115993062Y-94136979D01*
X116023954Y-94134059D01*
X116035811Y-94133500D01*
X118791800Y-94133500D01*
X118859921Y-94153502D01*
X118879147Y-94169843D01*
X118879420Y-94169540D01*
X118884332Y-94173963D01*
X118888747Y-94178866D01*
X119043248Y-94291118D01*
X119049276Y-94293802D01*
X119049278Y-94293803D01*
X119204761Y-94363028D01*
X119217712Y-94368794D01*
X119311113Y-94388647D01*
X119398056Y-94407128D01*
X119398061Y-94407128D01*
X119404513Y-94408500D01*
X119595487Y-94408500D01*
X119601939Y-94407128D01*
X119601944Y-94407128D01*
X119775835Y-94370166D01*
X119775838Y-94370165D01*
X119782288Y-94368794D01*
X119788314Y-94366111D01*
X119791564Y-94365055D01*
X119862532Y-94363028D01*
X119923330Y-94399690D01*
X119954655Y-94463403D01*
X119956500Y-94484888D01*
X119956500Y-97981996D01*
X119936498Y-98050117D01*
X119902771Y-98085209D01*
X119774730Y-98174864D01*
X119774727Y-98174866D01*
X119770219Y-98178023D01*
X119613023Y-98335219D01*
X119609866Y-98339727D01*
X119609864Y-98339730D01*
X119520209Y-98467771D01*
X119464752Y-98512099D01*
X119416996Y-98521500D01*
X116188763Y-98521500D01*
X116177579Y-98520973D01*
X116170091Y-98519299D01*
X116162168Y-98519548D01*
X116102033Y-98521438D01*
X116098075Y-98521500D01*
X116070144Y-98521500D01*
X116066229Y-98521995D01*
X116066225Y-98521995D01*
X116066167Y-98522003D01*
X116066138Y-98522006D01*
X116054296Y-98522939D01*
X116010110Y-98524327D01*
X115992744Y-98529372D01*
X115990658Y-98529978D01*
X115971306Y-98533986D01*
X115964235Y-98534880D01*
X115951203Y-98536526D01*
X115943834Y-98539443D01*
X115943832Y-98539444D01*
X115910097Y-98552800D01*
X115898869Y-98556645D01*
X115856407Y-98568982D01*
X115849585Y-98573016D01*
X115849579Y-98573019D01*
X115838968Y-98579294D01*
X115821218Y-98587990D01*
X115809756Y-98592528D01*
X115809751Y-98592531D01*
X115802383Y-98595448D01*
X115795968Y-98600109D01*
X115766625Y-98621427D01*
X115756707Y-98627943D01*
X115738019Y-98638995D01*
X115718637Y-98650458D01*
X115704313Y-98664782D01*
X115689281Y-98677621D01*
X115672893Y-98689528D01*
X115663642Y-98700711D01*
X115644712Y-98723593D01*
X115636722Y-98732373D01*
X115177747Y-99191348D01*
X115169461Y-99198888D01*
X115162982Y-99203000D01*
X115157557Y-99208777D01*
X115116357Y-99252651D01*
X115113602Y-99255493D01*
X115093865Y-99275230D01*
X115091385Y-99278427D01*
X115083682Y-99287447D01*
X115053414Y-99319679D01*
X115049595Y-99326625D01*
X115049593Y-99326628D01*
X115043652Y-99337434D01*
X115032801Y-99353953D01*
X115020386Y-99369959D01*
X115017241Y-99377228D01*
X115017238Y-99377232D01*
X115002826Y-99410537D01*
X114997609Y-99421187D01*
X114976305Y-99459940D01*
X114974334Y-99467615D01*
X114974334Y-99467616D01*
X114971267Y-99479562D01*
X114964863Y-99498266D01*
X114956819Y-99516855D01*
X114955580Y-99524678D01*
X114955577Y-99524688D01*
X114949901Y-99560524D01*
X114947495Y-99572144D01*
X114936500Y-99614970D01*
X114936500Y-99635224D01*
X114934949Y-99654934D01*
X114931780Y-99674943D01*
X114932526Y-99682835D01*
X114935941Y-99718961D01*
X114936500Y-99730819D01*
X114936500Y-102331996D01*
X114916498Y-102400117D01*
X114882771Y-102435209D01*
X114754730Y-102524864D01*
X114754727Y-102524866D01*
X114750219Y-102528023D01*
X114593023Y-102685219D01*
X114465512Y-102867324D01*
X114463189Y-102872306D01*
X114463186Y-102872311D01*
X114373883Y-103063822D01*
X114371560Y-103068804D01*
X114314022Y-103283537D01*
X114294647Y-103505000D01*
X114314022Y-103726463D01*
X114371560Y-103941196D01*
X114373882Y-103946177D01*
X114373883Y-103946178D01*
X114463186Y-104137689D01*
X114463189Y-104137694D01*
X114465512Y-104142676D01*
X114593023Y-104324781D01*
X114750219Y-104481977D01*
X114754727Y-104485134D01*
X114754730Y-104485136D01*
X114830495Y-104538187D01*
X114932323Y-104609488D01*
X114937305Y-104611811D01*
X114937310Y-104611814D01*
X115042373Y-104660805D01*
X115095658Y-104707722D01*
X115115119Y-104775999D01*
X115094577Y-104843959D01*
X115042373Y-104889195D01*
X114937311Y-104938186D01*
X114937306Y-104938189D01*
X114932324Y-104940512D01*
X114927817Y-104943668D01*
X114927815Y-104943669D01*
X114754730Y-105064864D01*
X114754727Y-105064866D01*
X114750219Y-105068023D01*
X114593023Y-105225219D01*
X114465512Y-105407324D01*
X114463189Y-105412306D01*
X114463186Y-105412311D01*
X114373883Y-105603822D01*
X114371560Y-105608804D01*
X114314022Y-105823537D01*
X114294647Y-106045000D01*
X114314022Y-106266463D01*
X114371560Y-106481196D01*
X114373882Y-106486177D01*
X114373883Y-106486178D01*
X114463186Y-106677689D01*
X114463189Y-106677694D01*
X114465512Y-106682676D01*
X114593023Y-106864781D01*
X114750219Y-107021977D01*
X114754727Y-107025134D01*
X114754730Y-107025136D01*
X114830495Y-107078187D01*
X114932323Y-107149488D01*
X114937305Y-107151811D01*
X114937310Y-107151814D01*
X115042373Y-107200805D01*
X115095658Y-107247722D01*
X115115119Y-107315999D01*
X115094577Y-107383959D01*
X115042373Y-107429195D01*
X114937311Y-107478186D01*
X114937306Y-107478189D01*
X114932324Y-107480512D01*
X114927817Y-107483668D01*
X114927815Y-107483669D01*
X114754730Y-107604864D01*
X114754727Y-107604866D01*
X114750219Y-107608023D01*
X114593023Y-107765219D01*
X114465512Y-107947324D01*
X114463189Y-107952306D01*
X114463186Y-107952311D01*
X114373883Y-108143822D01*
X114371560Y-108148804D01*
X114314022Y-108363537D01*
X114294647Y-108585000D01*
X114314022Y-108806463D01*
X114371560Y-109021196D01*
X114373882Y-109026177D01*
X114373883Y-109026178D01*
X114463186Y-109217689D01*
X114463189Y-109217694D01*
X114465512Y-109222676D01*
X114468668Y-109227183D01*
X114468669Y-109227185D01*
X114581190Y-109387881D01*
X114593023Y-109404781D01*
X114750219Y-109561977D01*
X114754727Y-109565134D01*
X114754730Y-109565136D01*
X114830495Y-109618187D01*
X114932323Y-109689488D01*
X114937305Y-109691811D01*
X114937310Y-109691814D01*
X115042373Y-109740805D01*
X115095658Y-109787722D01*
X115115119Y-109855999D01*
X115094577Y-109923959D01*
X115042373Y-109969195D01*
X114937311Y-110018186D01*
X114937306Y-110018189D01*
X114932324Y-110020512D01*
X114927817Y-110023668D01*
X114927815Y-110023669D01*
X114754730Y-110144864D01*
X114754727Y-110144866D01*
X114750219Y-110148023D01*
X114593023Y-110305219D01*
X114589866Y-110309727D01*
X114589864Y-110309730D01*
X114490307Y-110451913D01*
X114465512Y-110487324D01*
X114463189Y-110492306D01*
X114463186Y-110492311D01*
X114378218Y-110674525D01*
X114371560Y-110688804D01*
X114314022Y-110903537D01*
X114294647Y-111125000D01*
X114314022Y-111346463D01*
X114371560Y-111561196D01*
X114373882Y-111566177D01*
X114373883Y-111566178D01*
X114463186Y-111757689D01*
X114463189Y-111757694D01*
X114465512Y-111762676D01*
X114468668Y-111767183D01*
X114468669Y-111767185D01*
X114571669Y-111914284D01*
X114593023Y-111944781D01*
X114750219Y-112101977D01*
X114754727Y-112105134D01*
X114754730Y-112105136D01*
X114830495Y-112158187D01*
X114932323Y-112229488D01*
X114937305Y-112231811D01*
X114937310Y-112231814D01*
X115042965Y-112281081D01*
X115096250Y-112327998D01*
X115115711Y-112396275D01*
X115095169Y-112464235D01*
X115042965Y-112509471D01*
X114937559Y-112558623D01*
X114928068Y-112564103D01*
X114884235Y-112594794D01*
X114875860Y-112605271D01*
X114882928Y-112618718D01*
X115557188Y-113292978D01*
X115571132Y-113300592D01*
X115572965Y-113300461D01*
X115579580Y-113296210D01*
X116257793Y-112617997D01*
X116264223Y-112606223D01*
X116254926Y-112594207D01*
X116211931Y-112564102D01*
X116202445Y-112558624D01*
X116097035Y-112509471D01*
X116043750Y-112462554D01*
X116024289Y-112394277D01*
X116044831Y-112326317D01*
X116097035Y-112281081D01*
X116202690Y-112231814D01*
X116202695Y-112231811D01*
X116207677Y-112229488D01*
X116309505Y-112158187D01*
X116385270Y-112105136D01*
X116385273Y-112105134D01*
X116389781Y-112101977D01*
X116546977Y-111944781D01*
X116568332Y-111914284D01*
X116671331Y-111767185D01*
X116671332Y-111767183D01*
X116674488Y-111762676D01*
X116676811Y-111757694D01*
X116676814Y-111757689D01*
X116766117Y-111566178D01*
X116766118Y-111566177D01*
X116768440Y-111561196D01*
X116825978Y-111346463D01*
X116845353Y-111125000D01*
X116825978Y-110903537D01*
X116768440Y-110688804D01*
X116761782Y-110674525D01*
X116676814Y-110492311D01*
X116676811Y-110492306D01*
X116674488Y-110487324D01*
X116649693Y-110451913D01*
X116550136Y-110309730D01*
X116550134Y-110309727D01*
X116546977Y-110305219D01*
X116389781Y-110148023D01*
X116385273Y-110144866D01*
X116385270Y-110144864D01*
X116309505Y-110091813D01*
X116207677Y-110020512D01*
X116202695Y-110018189D01*
X116202690Y-110018186D01*
X116097627Y-109969195D01*
X116044342Y-109922278D01*
X116024881Y-109854001D01*
X116045423Y-109786041D01*
X116097627Y-109740805D01*
X116202690Y-109691814D01*
X116202695Y-109691811D01*
X116207677Y-109689488D01*
X116309505Y-109618187D01*
X116385270Y-109565136D01*
X116385273Y-109565134D01*
X116389781Y-109561977D01*
X116546977Y-109404781D01*
X116558811Y-109387881D01*
X116671331Y-109227185D01*
X116671332Y-109227183D01*
X116674488Y-109222676D01*
X116676811Y-109217694D01*
X116676814Y-109217689D01*
X116766117Y-109026178D01*
X116766118Y-109026177D01*
X116768440Y-109021196D01*
X116825978Y-108806463D01*
X116845353Y-108585000D01*
X116825978Y-108363537D01*
X116768440Y-108148804D01*
X116766117Y-108143822D01*
X116676814Y-107952311D01*
X116676811Y-107952306D01*
X116674488Y-107947324D01*
X116546977Y-107765219D01*
X116389781Y-107608023D01*
X116385273Y-107604866D01*
X116385270Y-107604864D01*
X116309505Y-107551813D01*
X116207677Y-107480512D01*
X116202695Y-107478189D01*
X116202690Y-107478186D01*
X116097627Y-107429195D01*
X116044342Y-107382278D01*
X116024881Y-107314001D01*
X116045423Y-107246041D01*
X116097627Y-107200805D01*
X116202690Y-107151814D01*
X116202695Y-107151811D01*
X116207677Y-107149488D01*
X116309505Y-107078187D01*
X116385270Y-107025136D01*
X116385273Y-107025134D01*
X116389781Y-107021977D01*
X116546977Y-106864781D01*
X116674488Y-106682676D01*
X116676811Y-106677694D01*
X116676814Y-106677689D01*
X116766117Y-106486178D01*
X116766118Y-106486177D01*
X116768440Y-106481196D01*
X116825978Y-106266463D01*
X116845353Y-106045000D01*
X116825978Y-105823537D01*
X116768440Y-105608804D01*
X116766117Y-105603822D01*
X116676814Y-105412311D01*
X116676811Y-105412306D01*
X116674488Y-105407324D01*
X116546977Y-105225219D01*
X116389781Y-105068023D01*
X116385273Y-105064866D01*
X116385270Y-105064864D01*
X116309505Y-105011813D01*
X116207677Y-104940512D01*
X116202695Y-104938189D01*
X116202690Y-104938186D01*
X116097627Y-104889195D01*
X116044342Y-104842278D01*
X116024881Y-104774001D01*
X116045423Y-104706041D01*
X116097627Y-104660805D01*
X116202690Y-104611814D01*
X116202695Y-104611811D01*
X116207677Y-104609488D01*
X116309505Y-104538187D01*
X116385270Y-104485136D01*
X116385273Y-104485134D01*
X116389781Y-104481977D01*
X116546977Y-104324781D01*
X116674488Y-104142676D01*
X116676811Y-104137694D01*
X116676814Y-104137689D01*
X116766117Y-103946178D01*
X116766118Y-103946177D01*
X116768440Y-103941196D01*
X116825978Y-103726463D01*
X116845353Y-103505000D01*
X116825978Y-103283537D01*
X116768440Y-103068804D01*
X116766117Y-103063822D01*
X116676814Y-102872311D01*
X116676811Y-102872306D01*
X116674488Y-102867324D01*
X116546977Y-102685219D01*
X116389781Y-102528023D01*
X116385273Y-102524866D01*
X116385270Y-102524864D01*
X116257229Y-102435209D01*
X116212901Y-102379752D01*
X116203500Y-102331996D01*
X116203500Y-100009594D01*
X116223502Y-99941473D01*
X116240405Y-99920499D01*
X116335499Y-99825405D01*
X116397811Y-99791379D01*
X116424594Y-99788500D01*
X119416996Y-99788500D01*
X119485117Y-99808502D01*
X119520209Y-99842229D01*
X119600856Y-99957404D01*
X119613023Y-99974781D01*
X119770219Y-100131977D01*
X119774727Y-100135134D01*
X119774730Y-100135136D01*
X119850495Y-100188187D01*
X119952323Y-100259488D01*
X119957305Y-100261811D01*
X119957310Y-100261814D01*
X120147810Y-100350645D01*
X120153804Y-100353440D01*
X120159112Y-100354862D01*
X120159114Y-100354863D01*
X120224949Y-100372503D01*
X120368537Y-100410978D01*
X120590000Y-100430353D01*
X120811463Y-100410978D01*
X120955051Y-100372503D01*
X121020886Y-100354863D01*
X121020888Y-100354862D01*
X121026196Y-100353440D01*
X121032190Y-100350645D01*
X121222690Y-100261814D01*
X121222695Y-100261811D01*
X121227677Y-100259488D01*
X121292959Y-100213777D01*
X122435777Y-100213777D01*
X122445074Y-100225793D01*
X122488069Y-100255898D01*
X122497555Y-100261376D01*
X122688993Y-100350645D01*
X122699285Y-100354391D01*
X122903309Y-100409059D01*
X122914104Y-100410962D01*
X123124525Y-100429372D01*
X123135475Y-100429372D01*
X123345896Y-100410962D01*
X123356691Y-100409059D01*
X123560715Y-100354391D01*
X123571007Y-100350645D01*
X123762445Y-100261376D01*
X123771931Y-100255898D01*
X123815764Y-100225207D01*
X123824139Y-100214729D01*
X123817071Y-100201281D01*
X123142812Y-99527022D01*
X123128868Y-99519408D01*
X123127035Y-99519539D01*
X123120420Y-99523790D01*
X122442207Y-100202003D01*
X122435777Y-100213777D01*
X121292959Y-100213777D01*
X121329505Y-100188187D01*
X121405270Y-100135136D01*
X121405273Y-100135134D01*
X121409781Y-100131977D01*
X121566977Y-99974781D01*
X121579145Y-99957404D01*
X121691331Y-99797185D01*
X121691332Y-99797183D01*
X121694488Y-99792676D01*
X121696811Y-99787694D01*
X121696814Y-99787689D01*
X121746081Y-99682035D01*
X121792999Y-99628750D01*
X121861276Y-99609289D01*
X121929236Y-99629831D01*
X121974471Y-99682035D01*
X122023623Y-99787441D01*
X122029103Y-99796932D01*
X122059794Y-99840765D01*
X122070271Y-99849140D01*
X122083718Y-99842072D01*
X122757978Y-99167812D01*
X122765592Y-99153868D01*
X122765461Y-99152035D01*
X122761210Y-99145420D01*
X122082997Y-98467207D01*
X122071223Y-98460777D01*
X122059207Y-98470074D01*
X122029103Y-98513068D01*
X122023623Y-98522559D01*
X121974471Y-98627965D01*
X121927553Y-98681250D01*
X121859276Y-98700711D01*
X121791316Y-98680169D01*
X121746081Y-98627965D01*
X121696814Y-98522311D01*
X121696811Y-98522306D01*
X121694488Y-98517324D01*
X121691331Y-98512815D01*
X121570136Y-98339730D01*
X121570134Y-98339727D01*
X121566977Y-98335219D01*
X121409781Y-98178023D01*
X121405273Y-98174866D01*
X121405270Y-98174864D01*
X121324275Y-98118151D01*
X121291599Y-98095271D01*
X122435860Y-98095271D01*
X122442928Y-98108718D01*
X123117188Y-98782978D01*
X123131132Y-98790592D01*
X123132965Y-98790461D01*
X123139580Y-98786210D01*
X123817793Y-98107997D01*
X123824223Y-98096223D01*
X123814926Y-98084207D01*
X123771931Y-98054102D01*
X123762445Y-98048624D01*
X123571007Y-97959355D01*
X123560715Y-97955609D01*
X123356691Y-97900941D01*
X123345896Y-97899038D01*
X123135475Y-97880628D01*
X123124525Y-97880628D01*
X122914104Y-97899038D01*
X122903309Y-97900941D01*
X122699285Y-97955609D01*
X122688993Y-97959355D01*
X122497559Y-98048623D01*
X122488068Y-98054103D01*
X122444235Y-98084794D01*
X122435860Y-98095271D01*
X121291599Y-98095271D01*
X121277229Y-98085209D01*
X121232901Y-98029752D01*
X121223500Y-97981996D01*
X121223500Y-90593777D01*
X122495777Y-90593777D01*
X122505074Y-90605793D01*
X122548069Y-90635898D01*
X122557555Y-90641376D01*
X122748993Y-90730645D01*
X122759285Y-90734391D01*
X122963309Y-90789059D01*
X122974104Y-90790962D01*
X123184525Y-90809372D01*
X123195475Y-90809372D01*
X123405896Y-90790962D01*
X123416691Y-90789059D01*
X123620715Y-90734391D01*
X123631007Y-90730645D01*
X123822445Y-90641376D01*
X123831931Y-90635898D01*
X123875764Y-90605207D01*
X123884139Y-90594729D01*
X123877071Y-90581281D01*
X123202812Y-89907022D01*
X123188868Y-89899408D01*
X123187035Y-89899539D01*
X123180420Y-89903790D01*
X122502207Y-90582003D01*
X122495777Y-90593777D01*
X121223500Y-90593777D01*
X121223500Y-89540475D01*
X121915628Y-89540475D01*
X121934038Y-89750896D01*
X121935941Y-89761691D01*
X121990609Y-89965715D01*
X121994355Y-89976007D01*
X122083623Y-90167441D01*
X122089103Y-90176932D01*
X122119794Y-90220765D01*
X122130271Y-90229140D01*
X122143718Y-90222072D01*
X122817978Y-89547812D01*
X122824356Y-89536132D01*
X123554408Y-89536132D01*
X123554539Y-89537965D01*
X123558790Y-89544580D01*
X124237003Y-90222793D01*
X124248777Y-90229223D01*
X124260793Y-90219926D01*
X124290897Y-90176932D01*
X124296377Y-90167441D01*
X124385645Y-89976007D01*
X124389391Y-89965715D01*
X124444059Y-89761691D01*
X124445962Y-89750896D01*
X124464372Y-89540475D01*
X124464372Y-89529525D01*
X124445962Y-89319104D01*
X124444059Y-89308309D01*
X124389391Y-89104285D01*
X124385645Y-89093993D01*
X124296377Y-88902559D01*
X124290897Y-88893068D01*
X124260206Y-88849235D01*
X124249729Y-88840860D01*
X124236282Y-88847928D01*
X123562022Y-89522188D01*
X123554408Y-89536132D01*
X122824356Y-89536132D01*
X122825592Y-89533868D01*
X122825461Y-89532035D01*
X122821210Y-89525420D01*
X122142997Y-88847207D01*
X122131223Y-88840777D01*
X122119207Y-88850074D01*
X122089103Y-88893068D01*
X122083623Y-88902559D01*
X121994355Y-89093993D01*
X121990609Y-89104285D01*
X121935941Y-89308309D01*
X121934038Y-89319104D01*
X121915628Y-89529525D01*
X121915628Y-89540475D01*
X121223500Y-89540475D01*
X121223500Y-79749594D01*
X121243502Y-79681473D01*
X121260405Y-79660499D01*
X121705213Y-79215691D01*
X121767525Y-79181665D01*
X121838340Y-79186730D01*
X121895176Y-79229277D01*
X121919987Y-79295797D01*
X121919829Y-79315767D01*
X121914647Y-79375000D01*
X121934022Y-79596463D01*
X121991560Y-79811196D01*
X121993882Y-79816177D01*
X121993883Y-79816178D01*
X122083186Y-80007689D01*
X122083189Y-80007694D01*
X122085512Y-80012676D01*
X122088668Y-80017183D01*
X122088669Y-80017185D01*
X122209687Y-80190016D01*
X122213023Y-80194781D01*
X122370219Y-80351977D01*
X122374727Y-80355134D01*
X122374730Y-80355136D01*
X122445885Y-80404959D01*
X122552323Y-80479488D01*
X122557305Y-80481811D01*
X122557310Y-80481814D01*
X122662373Y-80530805D01*
X122715658Y-80577722D01*
X122735119Y-80645999D01*
X122714577Y-80713959D01*
X122662373Y-80759195D01*
X122557311Y-80808186D01*
X122557306Y-80808189D01*
X122552324Y-80810512D01*
X122547817Y-80813668D01*
X122547815Y-80813669D01*
X122374730Y-80934864D01*
X122374727Y-80934866D01*
X122370219Y-80938023D01*
X122213023Y-81095219D01*
X122085512Y-81277324D01*
X122083189Y-81282306D01*
X122083186Y-81282311D01*
X121998099Y-81464781D01*
X121991560Y-81478804D01*
X121934022Y-81693537D01*
X121914647Y-81915000D01*
X121934022Y-82136463D01*
X121991560Y-82351196D01*
X121993882Y-82356177D01*
X121993883Y-82356178D01*
X122083186Y-82547689D01*
X122083189Y-82547694D01*
X122085512Y-82552676D01*
X122213023Y-82734781D01*
X122370219Y-82891977D01*
X122374727Y-82895134D01*
X122374730Y-82895136D01*
X122445885Y-82944959D01*
X122552323Y-83019488D01*
X122557305Y-83021811D01*
X122557310Y-83021814D01*
X122662373Y-83070805D01*
X122715658Y-83117722D01*
X122735119Y-83185999D01*
X122714577Y-83253959D01*
X122662373Y-83299195D01*
X122557311Y-83348186D01*
X122557306Y-83348189D01*
X122552324Y-83350512D01*
X122547817Y-83353668D01*
X122547815Y-83353669D01*
X122374730Y-83474864D01*
X122374727Y-83474866D01*
X122370219Y-83478023D01*
X122213023Y-83635219D01*
X122085512Y-83817324D01*
X122083189Y-83822306D01*
X122083186Y-83822311D01*
X121998099Y-84004781D01*
X121991560Y-84018804D01*
X121934022Y-84233537D01*
X121914647Y-84455000D01*
X121934022Y-84676463D01*
X121991560Y-84891196D01*
X121993882Y-84896177D01*
X121993883Y-84896178D01*
X122083186Y-85087689D01*
X122083189Y-85087694D01*
X122085512Y-85092676D01*
X122213023Y-85274781D01*
X122370219Y-85431977D01*
X122374727Y-85435134D01*
X122374730Y-85435136D01*
X122445885Y-85484959D01*
X122552323Y-85559488D01*
X122557305Y-85561811D01*
X122557310Y-85561814D01*
X122662373Y-85610805D01*
X122715658Y-85657722D01*
X122735119Y-85725999D01*
X122714577Y-85793959D01*
X122662373Y-85839195D01*
X122557311Y-85888186D01*
X122557306Y-85888189D01*
X122552324Y-85890512D01*
X122547817Y-85893668D01*
X122547815Y-85893669D01*
X122374730Y-86014864D01*
X122374727Y-86014866D01*
X122370219Y-86018023D01*
X122213023Y-86175219D01*
X122085512Y-86357324D01*
X122083189Y-86362306D01*
X122083186Y-86362311D01*
X121998099Y-86544781D01*
X121991560Y-86558804D01*
X121934022Y-86773537D01*
X121914647Y-86995000D01*
X121934022Y-87216463D01*
X121991560Y-87431196D01*
X121993882Y-87436177D01*
X121993883Y-87436178D01*
X122083186Y-87627689D01*
X122083189Y-87627694D01*
X122085512Y-87632676D01*
X122213023Y-87814781D01*
X122370219Y-87971977D01*
X122374727Y-87975134D01*
X122374730Y-87975136D01*
X122445885Y-88024959D01*
X122552323Y-88099488D01*
X122557305Y-88101811D01*
X122557310Y-88101814D01*
X122662965Y-88151081D01*
X122716250Y-88197998D01*
X122735711Y-88266275D01*
X122715169Y-88334235D01*
X122662965Y-88379471D01*
X122557559Y-88428623D01*
X122548068Y-88434103D01*
X122504235Y-88464794D01*
X122495860Y-88475271D01*
X122502928Y-88488718D01*
X123177188Y-89162978D01*
X123191132Y-89170592D01*
X123192965Y-89170461D01*
X123199580Y-89166210D01*
X123877793Y-88487997D01*
X123884223Y-88476223D01*
X123874926Y-88464207D01*
X123831931Y-88434102D01*
X123822445Y-88428624D01*
X123717035Y-88379471D01*
X123663750Y-88332554D01*
X123644289Y-88264277D01*
X123664831Y-88196317D01*
X123717035Y-88151081D01*
X123822690Y-88101814D01*
X123822695Y-88101811D01*
X123827677Y-88099488D01*
X123934115Y-88024959D01*
X124005270Y-87975136D01*
X124005273Y-87975134D01*
X124009781Y-87971977D01*
X124166977Y-87814781D01*
X124294488Y-87632676D01*
X124296811Y-87627694D01*
X124296814Y-87627689D01*
X124386117Y-87436178D01*
X124386118Y-87436177D01*
X124388440Y-87431196D01*
X124445978Y-87216463D01*
X124465353Y-86995000D01*
X124445978Y-86773537D01*
X124388440Y-86558804D01*
X124381901Y-86544781D01*
X124296814Y-86362311D01*
X124296811Y-86362306D01*
X124294488Y-86357324D01*
X124166977Y-86175219D01*
X124009781Y-86018023D01*
X124005273Y-86014866D01*
X124005270Y-86014864D01*
X123929505Y-85961813D01*
X123827677Y-85890512D01*
X123822695Y-85888189D01*
X123822690Y-85888186D01*
X123717627Y-85839195D01*
X123664342Y-85792278D01*
X123644881Y-85724001D01*
X123665423Y-85656041D01*
X123717627Y-85610805D01*
X123822690Y-85561814D01*
X123822695Y-85561811D01*
X123827677Y-85559488D01*
X123934115Y-85484959D01*
X124005270Y-85435136D01*
X124005273Y-85435134D01*
X124009781Y-85431977D01*
X124166977Y-85274781D01*
X124294488Y-85092676D01*
X124296811Y-85087694D01*
X124296814Y-85087689D01*
X124386117Y-84896178D01*
X124386118Y-84896177D01*
X124388440Y-84891196D01*
X124445978Y-84676463D01*
X124465353Y-84455000D01*
X124445978Y-84233537D01*
X124388440Y-84018804D01*
X124381901Y-84004781D01*
X124296814Y-83822311D01*
X124296811Y-83822306D01*
X124294488Y-83817324D01*
X124166977Y-83635219D01*
X124009781Y-83478023D01*
X124005273Y-83474866D01*
X124005270Y-83474864D01*
X123929505Y-83421813D01*
X123827677Y-83350512D01*
X123822695Y-83348189D01*
X123822690Y-83348186D01*
X123717627Y-83299195D01*
X123664342Y-83252278D01*
X123644881Y-83184001D01*
X123665423Y-83116041D01*
X123717627Y-83070805D01*
X123822690Y-83021814D01*
X123822695Y-83021811D01*
X123827677Y-83019488D01*
X123934115Y-82944959D01*
X124005270Y-82895136D01*
X124005273Y-82895134D01*
X124009781Y-82891977D01*
X124166977Y-82734781D01*
X124294488Y-82552676D01*
X124296811Y-82547694D01*
X124296814Y-82547689D01*
X124386117Y-82356178D01*
X124386118Y-82356177D01*
X124388440Y-82351196D01*
X124445978Y-82136463D01*
X124465353Y-81915000D01*
X124445978Y-81693537D01*
X124388440Y-81478804D01*
X124381901Y-81464781D01*
X124296814Y-81282311D01*
X124296811Y-81282306D01*
X124294488Y-81277324D01*
X124166977Y-81095219D01*
X124009781Y-80938023D01*
X124005273Y-80934866D01*
X124005270Y-80934864D01*
X123929505Y-80881813D01*
X123827677Y-80810512D01*
X123822695Y-80808189D01*
X123822690Y-80808186D01*
X123717627Y-80759195D01*
X123664342Y-80712278D01*
X123644881Y-80644001D01*
X123665423Y-80576041D01*
X123717627Y-80530805D01*
X123822690Y-80481814D01*
X123822695Y-80481811D01*
X123827677Y-80479488D01*
X123934115Y-80404959D01*
X124005270Y-80355136D01*
X124005273Y-80355134D01*
X124009781Y-80351977D01*
X124166977Y-80194781D01*
X124170314Y-80190016D01*
X124291331Y-80017185D01*
X124291332Y-80017183D01*
X124294488Y-80012676D01*
X124296811Y-80007694D01*
X124296814Y-80007689D01*
X124386117Y-79816178D01*
X124386118Y-79816177D01*
X124388440Y-79811196D01*
X124445978Y-79596463D01*
X124465353Y-79375000D01*
X124445978Y-79153537D01*
X124388440Y-78938804D01*
X124380174Y-78921078D01*
X124296814Y-78742311D01*
X124296811Y-78742306D01*
X124294488Y-78737324D01*
X124166977Y-78555219D01*
X124009781Y-78398023D01*
X124005273Y-78394866D01*
X124005270Y-78394864D01*
X123929505Y-78341813D01*
X123827677Y-78270512D01*
X123822695Y-78268189D01*
X123822690Y-78268186D01*
X123717627Y-78219195D01*
X123664342Y-78172278D01*
X123644881Y-78104001D01*
X123665423Y-78036041D01*
X123717627Y-77990805D01*
X123822690Y-77941814D01*
X123822695Y-77941811D01*
X123827677Y-77939488D01*
X123934115Y-77864959D01*
X124005270Y-77815136D01*
X124005273Y-77815134D01*
X124009781Y-77811977D01*
X124166977Y-77654781D01*
X124294488Y-77472676D01*
X124296811Y-77467694D01*
X124296814Y-77467689D01*
X124386117Y-77276178D01*
X124386118Y-77276177D01*
X124388440Y-77271196D01*
X124445978Y-77056463D01*
X124465353Y-76835000D01*
X124445978Y-76613537D01*
X124388440Y-76398804D01*
X124348438Y-76313019D01*
X124296814Y-76202311D01*
X124296811Y-76202306D01*
X124294488Y-76197324D01*
X124270637Y-76163261D01*
X124170136Y-76019730D01*
X124170134Y-76019727D01*
X124166977Y-76015219D01*
X124009781Y-75858023D01*
X124005273Y-75854866D01*
X124005270Y-75854864D01*
X123929505Y-75801813D01*
X123827677Y-75730512D01*
X123822695Y-75728189D01*
X123822690Y-75728186D01*
X123717035Y-75678919D01*
X123663750Y-75632002D01*
X123644289Y-75563725D01*
X123664831Y-75495765D01*
X123717035Y-75450529D01*
X123822445Y-75401376D01*
X123831931Y-75395898D01*
X123875764Y-75365207D01*
X123884139Y-75354729D01*
X123877071Y-75341281D01*
X123202812Y-74667022D01*
X123188868Y-74659408D01*
X123187035Y-74659539D01*
X123180420Y-74663790D01*
X122502207Y-75342003D01*
X122495777Y-75353777D01*
X122505074Y-75365793D01*
X122548069Y-75395898D01*
X122557555Y-75401376D01*
X122662965Y-75450529D01*
X122716250Y-75497446D01*
X122735711Y-75565723D01*
X122715169Y-75633683D01*
X122662965Y-75678919D01*
X122557311Y-75728186D01*
X122557306Y-75728189D01*
X122552324Y-75730512D01*
X122547817Y-75733668D01*
X122547815Y-75733669D01*
X122374730Y-75854864D01*
X122374727Y-75854866D01*
X122370219Y-75858023D01*
X122213023Y-76015219D01*
X122209866Y-76019727D01*
X122209864Y-76019730D01*
X122109363Y-76163261D01*
X122085512Y-76197324D01*
X122083189Y-76202306D01*
X122083186Y-76202311D01*
X122031562Y-76313019D01*
X121991560Y-76398804D01*
X121934022Y-76613537D01*
X121914647Y-76835000D01*
X121934022Y-77056463D01*
X121935446Y-77061776D01*
X121935447Y-77061783D01*
X121944485Y-77095514D01*
X121942796Y-77166490D01*
X121911874Y-77217221D01*
X120197747Y-78931348D01*
X120189461Y-78938888D01*
X120182982Y-78943000D01*
X120177557Y-78948777D01*
X120136357Y-78992651D01*
X120133602Y-78995493D01*
X120113865Y-79015230D01*
X120111385Y-79018427D01*
X120103682Y-79027447D01*
X120073414Y-79059679D01*
X120069595Y-79066625D01*
X120069593Y-79066628D01*
X120063652Y-79077434D01*
X120052801Y-79093953D01*
X120040386Y-79109959D01*
X120037241Y-79117228D01*
X120037238Y-79117232D01*
X120022826Y-79150537D01*
X120017609Y-79161187D01*
X119996305Y-79199940D01*
X119994334Y-79207615D01*
X119994334Y-79207616D01*
X119991267Y-79219562D01*
X119984863Y-79238266D01*
X119976819Y-79256855D01*
X119975580Y-79264678D01*
X119975577Y-79264688D01*
X119969901Y-79300524D01*
X119967495Y-79312144D01*
X119956500Y-79354970D01*
X119956500Y-79375224D01*
X119954949Y-79394934D01*
X119951780Y-79414943D01*
X119952526Y-79422835D01*
X119955941Y-79458961D01*
X119956500Y-79470819D01*
X119956500Y-92515112D01*
X119936498Y-92583233D01*
X119882842Y-92629726D01*
X119812568Y-92639830D01*
X119791564Y-92634945D01*
X119788314Y-92633889D01*
X119782288Y-92631206D01*
X119775838Y-92629835D01*
X119775835Y-92629834D01*
X119601944Y-92592872D01*
X119601939Y-92592872D01*
X119595487Y-92591500D01*
X119404513Y-92591500D01*
X119398061Y-92592872D01*
X119398056Y-92592872D01*
X119311113Y-92611353D01*
X119217712Y-92631206D01*
X119211682Y-92633891D01*
X119211681Y-92633891D01*
X119049278Y-92706197D01*
X119049276Y-92706198D01*
X119043248Y-92708882D01*
X118888747Y-92821134D01*
X118884332Y-92826037D01*
X118879420Y-92830460D01*
X118878295Y-92829211D01*
X118824986Y-92862051D01*
X118791800Y-92866500D01*
X116314595Y-92866500D01*
X116246474Y-92846498D01*
X116225500Y-92829595D01*
X103648652Y-80252747D01*
X103641112Y-80244461D01*
X103637000Y-80237982D01*
X103587348Y-80191356D01*
X103584507Y-80188602D01*
X103564770Y-80168865D01*
X103561573Y-80166385D01*
X103552551Y-80158680D01*
X103526100Y-80133841D01*
X103520321Y-80128414D01*
X103513375Y-80124595D01*
X103513372Y-80124593D01*
X103502566Y-80118652D01*
X103486047Y-80107801D01*
X103485583Y-80107441D01*
X103470041Y-80095386D01*
X103462772Y-80092241D01*
X103462768Y-80092238D01*
X103429463Y-80077826D01*
X103418813Y-80072609D01*
X103380060Y-80051305D01*
X103360437Y-80046267D01*
X103341734Y-80039863D01*
X103330420Y-80034967D01*
X103330419Y-80034967D01*
X103323145Y-80031819D01*
X103315322Y-80030580D01*
X103315312Y-80030577D01*
X103279476Y-80024901D01*
X103267856Y-80022495D01*
X103232711Y-80013472D01*
X103232710Y-80013472D01*
X103225030Y-80011500D01*
X103204776Y-80011500D01*
X103185065Y-80009949D01*
X103172886Y-80008020D01*
X103165057Y-80006780D01*
X103157165Y-80007526D01*
X103121039Y-80010941D01*
X103109181Y-80011500D01*
X102773004Y-80011500D01*
X102704883Y-79991498D01*
X102669791Y-79957771D01*
X102580136Y-79829730D01*
X102580134Y-79829727D01*
X102576977Y-79825219D01*
X102419781Y-79668023D01*
X102415273Y-79664866D01*
X102415270Y-79664864D01*
X102309758Y-79590984D01*
X102237677Y-79540512D01*
X102232695Y-79538189D01*
X102232690Y-79538186D01*
X102127627Y-79489195D01*
X102074342Y-79442278D01*
X102054881Y-79374001D01*
X102075423Y-79306041D01*
X102127627Y-79260805D01*
X102232690Y-79211814D01*
X102232695Y-79211811D01*
X102237677Y-79209488D01*
X102402678Y-79093953D01*
X102415270Y-79085136D01*
X102415273Y-79085134D01*
X102419781Y-79081977D01*
X102576977Y-78924781D01*
X102704488Y-78742676D01*
X102706811Y-78737694D01*
X102706814Y-78737689D01*
X102796117Y-78546178D01*
X102796118Y-78546177D01*
X102798440Y-78541196D01*
X102855978Y-78326463D01*
X102875353Y-78105000D01*
X102855978Y-77883537D01*
X102798440Y-77668804D01*
X102791901Y-77654781D01*
X102706814Y-77472311D01*
X102706811Y-77472306D01*
X102704488Y-77467324D01*
X102576977Y-77285219D01*
X102419781Y-77128023D01*
X102415273Y-77124866D01*
X102415270Y-77124864D01*
X102309758Y-77050984D01*
X102237677Y-77000512D01*
X102232695Y-76998189D01*
X102232690Y-76998186D01*
X102041178Y-76908883D01*
X102041177Y-76908882D01*
X102036196Y-76906560D01*
X102030888Y-76905138D01*
X102030886Y-76905137D01*
X101965051Y-76887497D01*
X101821463Y-76849022D01*
X101600000Y-76829647D01*
X101378537Y-76849022D01*
X101234949Y-76887497D01*
X101169114Y-76905137D01*
X101169112Y-76905138D01*
X101163804Y-76906560D01*
X101158823Y-76908882D01*
X101158822Y-76908883D01*
X100967311Y-76998186D01*
X100967306Y-76998189D01*
X100962324Y-77000512D01*
X100957817Y-77003668D01*
X100957815Y-77003669D01*
X100784730Y-77124864D01*
X100784727Y-77124866D01*
X100780219Y-77128023D01*
X100723095Y-77185147D01*
X100660783Y-77219173D01*
X100589968Y-77214108D01*
X100533132Y-77171561D01*
X100508321Y-77105041D01*
X100508000Y-77096052D01*
X100508000Y-75000000D01*
X108876502Y-75000000D01*
X108896457Y-75228087D01*
X108897881Y-75233400D01*
X108897881Y-75233402D01*
X108924823Y-75333948D01*
X108955716Y-75449243D01*
X108958039Y-75454224D01*
X108958039Y-75454225D01*
X109050151Y-75651762D01*
X109050154Y-75651767D01*
X109052477Y-75656749D01*
X109183802Y-75844300D01*
X109345700Y-76006198D01*
X109350208Y-76009355D01*
X109350211Y-76009357D01*
X109391542Y-76038297D01*
X109533251Y-76137523D01*
X109538233Y-76139846D01*
X109538238Y-76139849D01*
X109672190Y-76202311D01*
X109740757Y-76234284D01*
X109746065Y-76235706D01*
X109746067Y-76235707D01*
X109956598Y-76292119D01*
X109956600Y-76292119D01*
X109961913Y-76293543D01*
X110190000Y-76313498D01*
X110418087Y-76293543D01*
X110423400Y-76292119D01*
X110423402Y-76292119D01*
X110633933Y-76235707D01*
X110633935Y-76235706D01*
X110639243Y-76234284D01*
X110707810Y-76202311D01*
X110841762Y-76139849D01*
X110841767Y-76139846D01*
X110846749Y-76137523D01*
X110988458Y-76038297D01*
X111029789Y-76009357D01*
X111029792Y-76009355D01*
X111034300Y-76006198D01*
X111192364Y-75848134D01*
X116501500Y-75848134D01*
X116508255Y-75910316D01*
X116559385Y-76046705D01*
X116646739Y-76163261D01*
X116763295Y-76250615D01*
X116899684Y-76301745D01*
X116961866Y-76308500D01*
X118658134Y-76308500D01*
X118720316Y-76301745D01*
X118856705Y-76250615D01*
X118973261Y-76163261D01*
X119060615Y-76046705D01*
X119111745Y-75910316D01*
X119118500Y-75848134D01*
X119118500Y-74300475D01*
X121915628Y-74300475D01*
X121934038Y-74510896D01*
X121935941Y-74521691D01*
X121990609Y-74725715D01*
X121994355Y-74736007D01*
X122083623Y-74927441D01*
X122089103Y-74936932D01*
X122119794Y-74980765D01*
X122130271Y-74989140D01*
X122143718Y-74982072D01*
X122817978Y-74307812D01*
X122824356Y-74296132D01*
X123554408Y-74296132D01*
X123554539Y-74297965D01*
X123558790Y-74304580D01*
X124237003Y-74982793D01*
X124248777Y-74989223D01*
X124260793Y-74979926D01*
X124290897Y-74936932D01*
X124296377Y-74927441D01*
X124385645Y-74736007D01*
X124389391Y-74725715D01*
X124444059Y-74521691D01*
X124445962Y-74510896D01*
X124464372Y-74300475D01*
X124464372Y-74289525D01*
X124445962Y-74079104D01*
X124444059Y-74068309D01*
X124389391Y-73864285D01*
X124385645Y-73853993D01*
X124296377Y-73662559D01*
X124290897Y-73653068D01*
X124260206Y-73609235D01*
X124249729Y-73600860D01*
X124236282Y-73607928D01*
X123562022Y-74282188D01*
X123554408Y-74296132D01*
X122824356Y-74296132D01*
X122825592Y-74293868D01*
X122825461Y-74292035D01*
X122821210Y-74285420D01*
X122142997Y-73607207D01*
X122131223Y-73600777D01*
X122119207Y-73610074D01*
X122089103Y-73653068D01*
X122083623Y-73662559D01*
X121994355Y-73853993D01*
X121990609Y-73864285D01*
X121935941Y-74068309D01*
X121934038Y-74079104D01*
X121915628Y-74289525D01*
X121915628Y-74300475D01*
X119118500Y-74300475D01*
X119118500Y-74151866D01*
X119111745Y-74089684D01*
X119060615Y-73953295D01*
X118973261Y-73836739D01*
X118856705Y-73749385D01*
X118720316Y-73698255D01*
X118658134Y-73691500D01*
X116961866Y-73691500D01*
X116899684Y-73698255D01*
X116763295Y-73749385D01*
X116646739Y-73836739D01*
X116559385Y-73953295D01*
X116508255Y-74089684D01*
X116501500Y-74151866D01*
X116501500Y-75848134D01*
X111192364Y-75848134D01*
X111196198Y-75844300D01*
X111327523Y-75656749D01*
X111329846Y-75651767D01*
X111329849Y-75651762D01*
X111421961Y-75454225D01*
X111421961Y-75454224D01*
X111424284Y-75449243D01*
X111455178Y-75333948D01*
X111482119Y-75233402D01*
X111482119Y-75233400D01*
X111483543Y-75228087D01*
X111503498Y-75000000D01*
X111483543Y-74771913D01*
X111471164Y-74725715D01*
X111425707Y-74556067D01*
X111425706Y-74556065D01*
X111424284Y-74550757D01*
X111410770Y-74521776D01*
X111329849Y-74348238D01*
X111329846Y-74348233D01*
X111327523Y-74343251D01*
X111196198Y-74155700D01*
X111034300Y-73993802D01*
X111029792Y-73990645D01*
X111029789Y-73990643D01*
X110933153Y-73922978D01*
X110846749Y-73862477D01*
X110841767Y-73860154D01*
X110841762Y-73860151D01*
X110644225Y-73768039D01*
X110644224Y-73768039D01*
X110639243Y-73765716D01*
X110633935Y-73764294D01*
X110633933Y-73764293D01*
X110423402Y-73707881D01*
X110423400Y-73707881D01*
X110418087Y-73706457D01*
X110190000Y-73686502D01*
X109961913Y-73706457D01*
X109956600Y-73707881D01*
X109956598Y-73707881D01*
X109746067Y-73764293D01*
X109746065Y-73764294D01*
X109740757Y-73765716D01*
X109735776Y-73768039D01*
X109735775Y-73768039D01*
X109538238Y-73860151D01*
X109538233Y-73860154D01*
X109533251Y-73862477D01*
X109446847Y-73922978D01*
X109350211Y-73990643D01*
X109350208Y-73990645D01*
X109345700Y-73993802D01*
X109183802Y-74155700D01*
X109052477Y-74343251D01*
X109050154Y-74348233D01*
X109050151Y-74348238D01*
X108969230Y-74521776D01*
X108955716Y-74550757D01*
X108954294Y-74556065D01*
X108954293Y-74556067D01*
X108908836Y-74725715D01*
X108896457Y-74771913D01*
X108876502Y-75000000D01*
X100508000Y-75000000D01*
X100508000Y-70634000D01*
X100528002Y-70565879D01*
X100581658Y-70519386D01*
X100634000Y-70508000D01*
X109061271Y-70508000D01*
X109129392Y-70528002D01*
G37*
%TD.AperFunction*%
%TD*%
M02*
